<svg xmlns="http://www.w3.org/2000/svg" xmlns:xlink="http://www.w3.org/1999/xlink" width="500" zoomAndPan="magnify" viewBox="0 0 375 149.999998" height="200" preserveAspectRatio="xMidYMid meet" version="1.0"><defs><g/><clipPath id="bbcde0dcaa"><path d="M 10.941406 29.101562 L 103.605469 29.101562 L 103.605469 121.765625 L 10.941406 121.765625 Z M 10.941406 29.101562 " clip-rule="nonzero"/></clipPath><clipPath id="2af27c02a7"><path d="M 57.273438 29.101562 C 31.6875 29.101562 10.941406 49.847656 10.941406 75.433594 C 10.941406 101.023438 31.6875 121.765625 57.273438 121.765625 C 82.863281 121.765625 103.605469 101.023438 103.605469 75.433594 C 103.605469 49.847656 82.863281 29.101562 57.273438 29.101562 Z M 57.273438 29.101562 " clip-rule="nonzero"/></clipPath><clipPath id="0f77b0da9a"><path d="M 3.257812 20.75 L 111.757812 20.75 L 111.757812 129.25 L 3.257812 129.25 Z M 3.257812 20.75 " clip-rule="nonzero"/></clipPath><clipPath id="f18861865a"><path d="M 57.546875 20.75 C 27.5625 20.75 3.257812 45.054688 3.257812 75.039062 C 3.257812 105.019531 27.5625 129.324219 57.546875 129.324219 C 87.527344 129.324219 111.832031 105.019531 111.832031 75.039062 C 111.832031 45.054688 87.527344 20.75 57.546875 20.75 Z M 57.546875 20.75 " clip-rule="nonzero"/></clipPath></defs><path stroke-linecap="round" transform="matrix(-0.2535, 0, 0, -0.2535, 85.907605, 67.118112)" fill="none" stroke-linejoin="miter" d="M 7.494249 7.492555 L 37.681012 7.492555 " stroke="#ffdf2b" stroke-width="15" stroke-opacity="1" stroke-miterlimit="4"/><path stroke-linecap="round" transform="matrix(0.127202, -0.219276, 0.219276, 0.127202, 69.676216, 72.698875)" fill="none" stroke-linejoin="miter" d="M 7.499036 7.49435 L 37.678893 7.498501 " stroke="#ffdf2b" stroke-width="15" stroke-opacity="1" stroke-miterlimit="4"/><path stroke-linecap="round" transform="matrix(-0.0411456, -0.250139, 0.250139, -0.0411456, 70.565675, 73.940863)" fill="none" stroke-linejoin="miter" d="M 7.494048 7.497784 L 51.281705 7.501332 " stroke="#ffdf2b" stroke-width="15" stroke-opacity="1" stroke-miterlimit="4"/><path stroke-linecap="round" transform="matrix(0.0664308, -0.244641, 0.244641, 0.0664308, 62.337472, 82.59185)" fill="none" stroke-linejoin="miter" d="M 7.506617 7.503782 L 90.917475 7.495659 " stroke="#ffdf2b" stroke-width="15" stroke-opacity="1" stroke-miterlimit="4"/><path stroke-linecap="round" transform="matrix(-0.0238256, -0.252378, 0.252378, -0.0238256, 62.971281, 83.114594)" fill="none" stroke-linejoin="miter" d="M 7.49962 7.508195 L 142.142002 7.496306 " stroke="#ffdf2b" stroke-width="15" stroke-opacity="1" stroke-miterlimit="4"/><path stroke-linecap="round" transform="matrix(0.0436973, -0.249705, 0.249705, 0.0436973, 54.703714, 73.284461)" fill="none" stroke-linejoin="miter" d="M 7.503066 7.491895 L 106.807946 7.493832 " stroke="#ffdf2b" stroke-width="15" stroke-opacity="1" stroke-miterlimit="4"/><path stroke-linecap="round" transform="matrix(0.2535, 0, 0, 0.2535, 29.180731, 83.082866)" fill="none" stroke-linejoin="miter" d="M 7.5002 7.501022 L 37.394187 7.501022 " stroke="#fcfcfc" stroke-width="15" stroke-opacity="1" stroke-miterlimit="4"/><path stroke-linecap="round" transform="matrix(-0.127202, 0.219276, -0.219276, -0.127202, 45.321658, 77.555145)" fill="none" stroke-linejoin="miter" d="M 7.502169 7.500652 L 37.391443 7.495229 " stroke="#fcfcfc" stroke-width="15" stroke-opacity="1" stroke-miterlimit="4"/><path stroke-linecap="round" transform="matrix(0.0411456, 0.250139, -0.250139, 0.0411456, 44.439699, 76.311223)" fill="none" stroke-linejoin="miter" d="M 7.500192 7.504662 L 50.912926 7.509004 " stroke="#fcfcfc" stroke-width="15" stroke-opacity="1" stroke-miterlimit="4"/><path stroke-linecap="round" transform="matrix(-0.0664308, 0.244641, -0.244641, -0.0664308, 52.616894, 67.722207)" fill="none" stroke-linejoin="miter" d="M 7.497936 7.495247 L 90.303324 7.491863 " stroke="#fcfcfc" stroke-width="15" stroke-opacity="1" stroke-miterlimit="4"/><path stroke-linecap="round" transform="matrix(0.0238256, 0.252378, -0.252378, 0.0238256, 51.986119, 67.197824)" fill="none" stroke-linejoin="miter" d="M 7.501255 7.494334 L 141.213035 7.502937 " stroke="#fcfcfc" stroke-width="15" stroke-opacity="1" stroke-miterlimit="4"/><path stroke-linecap="round" transform="matrix(-0.0436973, 0.249705, -0.249705, -0.0436973, 60.202411, 76.970234)" fill="none" stroke-linejoin="miter" d="M 7.502571 7.507121 L 106.103164 7.507158 " stroke="#fcfcfc" stroke-width="15" stroke-opacity="1" stroke-miterlimit="4"/><g clip-path="url(#bbcde0dcaa)"><g clip-path="url(#2af27c02a7)"><path stroke-linecap="butt" transform="matrix(0.2535, 0, 0, 0.2535, 10.943268, 29.10326)" fill="none" stroke-linejoin="miter" d="M 182.762045 -0.00669429 C 81.831306 -0.00669429 -0.00734358 81.831955 -0.00734358 182.762695 C -0.00734358 283.708843 81.831306 365.532084 182.762045 365.532084 C 283.708194 365.532084 365.531434 283.708843 365.531434 182.762695 C 365.531434 81.831955 283.708194 -0.00669429 182.762045 -0.00669429 Z M 182.762045 -0.00669429 " stroke="#ffdf2b" stroke-width="8" stroke-opacity="1" stroke-miterlimit="4"/></g></g><g clip-path="url(#0f77b0da9a)"><g clip-path="url(#f18861865a)"><path stroke-linecap="butt" transform="matrix(0.2535, 0, 0, 0.2535, 3.2585, 20.750267)" fill="none" stroke-linejoin="miter" d="M 214.155367 -0.00105274 C 95.873786 -0.00105274 -0.00271118 95.875445 -0.00271118 214.157026 C -0.00271118 332.423197 95.873786 428.299695 214.155367 428.299695 C 332.421539 428.299695 428.298036 332.423197 428.298036 214.157026 C 428.298036 95.875445 332.421539 -0.00105274 214.155367 -0.00105274 Z M 214.155367 -0.00105274 " stroke="#fcfcfc" stroke-width="34" stroke-opacity="1" stroke-miterlimit="4"/></g></g><g fill="#fcfcfc" fill-opacity="1"><g transform="translate(149.26227, 73.842157)"><g><path d="M 39.90625 0 L 3.484375 0 L 3.484375 -31.203125 L 16.5625 -31.203125 L 16.5625 -7.71875 L 39.90625 -7.71875 Z M 39.90625 0 "/></g></g></g><g fill="#fcfcfc" fill-opacity="1"><g transform="translate(190.024141, 73.842157)"><g><path d="M 52.40625 0 L 39.140625 0 L 36.203125 -5.109375 L 16.53125 -5.109375 L 13.59375 0 L 0.328125 0 L 20.28125 -31.1875 L 32.4375 -31.1875 Z M 31.796875 -12.828125 L 26.375 -22.28125 L 20.9375 -12.828125 Z M 31.796875 -12.828125 "/></g></g></g><g fill="#fcfcfc" fill-opacity="1"><g transform="translate(242.742821, 73.842157)"><g><path d="M 25.859375 0 L 3.484375 0 L 3.484375 -31.1875 L 26.328125 -31.1875 C 30.390625 -31.1875 33.734375 -31 36.359375 -30.625 C 38.984375 -30.257812 41.003906 -29.679688 42.421875 -28.890625 C 43.835938 -28.097656 44.800781 -27.09375 45.3125 -25.875 C 45.820312 -24.65625 46.078125 -23.195312 46.078125 -21.5 C 46.035156 -20.164062 45.664062 -19.0625 44.96875 -18.1875 C 44.28125 -17.3125 43.476562 -16.660156 42.5625 -16.234375 C 41.644531 -15.804688 40.835938 -15.59375 40.140625 -15.59375 C 40.816406 -15.59375 41.613281 -15.457031 42.53125 -15.1875 C 43.445312 -14.914062 44.332031 -14.523438 45.1875 -14.015625 C 46.050781 -13.515625 46.769531 -12.898438 47.34375 -12.171875 C 47.914062 -11.453125 48.203125 -10.628906 48.203125 -9.703125 C 48.203125 -8.484375 48.0625 -7.363281 47.78125 -6.34375 C 47.5 -5.332031 46.929688 -4.4375 46.078125 -3.65625 C 45.234375 -2.875 43.984375 -2.207031 42.328125 -1.65625 C 40.679688 -1.113281 38.519531 -0.703125 35.84375 -0.421875 C 33.164062 -0.140625 29.835938 0 25.859375 0 Z M 25.109375 -18.265625 C 27.023438 -18.265625 28.507812 -18.359375 29.5625 -18.546875 C 30.613281 -18.734375 31.34375 -19.019531 31.75 -19.40625 C 32.15625 -19.789062 32.359375 -20.28125 32.359375 -20.875 C 32.359375 -21.476562 32.15625 -21.972656 31.75 -22.359375 C 31.34375 -22.742188 30.613281 -23.023438 29.5625 -23.203125 C 28.507812 -23.390625 27.023438 -23.484375 25.109375 -23.484375 L 16.5625 -23.484375 L 16.5625 -18.265625 Z M 25.109375 -7.703125 C 27.066406 -7.703125 28.65625 -7.75 29.875 -7.84375 C 31.09375 -7.945312 31.984375 -8.179688 32.546875 -8.546875 C 33.117188 -8.910156 33.40625 -9.5 33.40625 -10.3125 C 33.40625 -11.125 33.117188 -11.710938 32.546875 -12.078125 C 31.984375 -12.453125 31.09375 -12.6875 29.875 -12.78125 C 28.65625 -12.875 27.066406 -12.921875 25.109375 -12.921875 L 16.5625 -12.921875 L 16.5625 -7.703125 Z M 25.109375 -7.703125 "/></g></g></g><path stroke-linecap="butt" transform="matrix(1.73944, 0, 0, 1.73944, 150.433413, 88.397574)" fill="none" stroke-linejoin="miter" d="M 4.954105 6.263737 L 4.954105 11.99924 L 1.697849 11.99924 L 1.697849 -2.296849 L 4.954105 -2.296849 L 4.954105 3.402723 L 9.56227 3.402723 L 9.56227 -2.296849 L 12.820772 -2.296849 L 12.820772 11.99924 L 9.56227 11.99924 L 9.56227 6.263737 Z M 14.258016 4.842213 C 14.258016 2.773928 14.963164 1.024533 16.37346 -0.410466 C 17.783756 -1.843219 19.4815 -2.559595 21.466694 -2.559595 C 23.467607 -2.559595 25.165352 -1.845464 26.562174 -0.417203 C 27.961241 1.008813 28.659652 2.7627 28.659652 4.842213 C 28.659652 6.9352 27.97247 8.693578 26.595859 10.12184 C 25.221495 11.54561 23.512521 12.257495 21.466694 12.257495 C 19.378198 12.257495 17.653505 11.552347 16.292615 10.137559 C 14.936216 8.722772 14.258016 6.957657 14.258016 4.842213 Z M 17.777019 4.842213 C 17.777019 5.59452 17.893795 6.279457 18.125101 6.897023 C 18.356408 7.514589 18.760633 8.037835 19.33553 8.466763 C 19.912674 8.893445 20.624559 9.106786 21.466694 9.106786 C 22.679369 9.106786 23.595612 8.689087 24.213178 7.85818 C 24.830744 7.025027 25.14065 6.021202 25.14065 4.842213 C 25.14065 3.676697 24.826252 2.675118 24.197458 1.837474 C 23.566418 0.99983 22.656912 0.579885 21.466694 0.579885 C 20.287705 0.579885 19.378198 0.99983 18.738176 1.837474 C 18.098153 2.675118 17.777019 3.676697 17.777019 4.842213 Z M 41.913739 11.99924 L 41.237785 3.526236 L 41.152449 3.526236 L 38.226309 11.916149 L 36.283784 11.916149 L 33.355399 3.526236 L 33.265571 3.526236 L 32.594108 11.99924 L 29.335606 11.99924 L 30.617897 -2.296849 L 34.083004 -2.296849 L 37.251678 5.94934 L 40.424844 -2.296849 L 43.88995 -2.296849 L 45.172241 11.99924 Z M 54.669281 -2.296849 L 54.669281 0.564165 L 49.74672 0.564165 L 49.74672 3.402723 L 54.460432 3.402723 L 54.460432 6.263737 L 49.74672 6.263737 L 49.74672 9.140471 L 54.669281 9.140471 L 54.669281 11.99924 L 46.490463 11.99924 L 46.490463 -2.296849 Z M 66.537775 -2.559595 C 67.310294 -2.559595 68.067092 -2.445065 68.805926 -2.220495 C 69.547005 -1.99368 70.0972 -1.771356 70.456511 -1.551278 L 70.977512 -1.205442 L 69.657044 1.392827 C 69.551496 1.325456 69.407772 1.235628 69.221379 1.125589 C 69.037232 1.01555 68.691395 0.86958 68.183869 0.685433 C 67.676342 0.501286 67.2025 0.406967 66.762344 0.406967 C 66.221132 0.406967 65.801187 0.523743 65.507001 0.755049 C 65.212815 0.986356 65.066845 1.296262 65.066845 1.689258 C 65.066845 1.886879 65.134216 2.06878 65.273449 2.234962 C 65.410436 2.401143 65.64848 2.580799 65.983088 2.771683 C 66.319942 2.960321 66.614128 3.113028 66.867892 3.229804 C 67.121655 3.344335 67.514652 3.517253 68.044635 3.74856 C 68.969861 4.143802 69.7581 4.680523 70.409351 5.356477 C 71.065094 6.032431 71.39072 6.795967 71.39072 7.651576 C 71.39072 8.471254 71.242504 9.187631 70.946072 9.800705 C 70.654132 10.411534 70.249907 10.892113 69.733397 11.237949 C 69.219133 11.586032 68.650973 11.842041 68.02667 12.008223 C 67.404613 12.174404 66.728659 12.257495 66.001054 12.257495 C 65.376751 12.257495 64.765922 12.194615 64.164076 12.066611 C 63.564476 11.940852 63.06144 11.783653 62.65497 11.592769 C 62.250745 11.401885 61.886942 11.215493 61.563562 11.031346 C 61.240182 10.844953 61.004384 10.687754 60.851677 10.561996 L 60.627108 10.371112 L 62.257482 7.63361 C 62.394469 7.750387 62.585353 7.896357 62.827888 8.078258 C 63.070423 8.255668 63.501596 8.495957 64.119162 8.79688 C 64.738974 9.095557 65.286923 9.246019 65.760765 9.246019 C 67.132884 9.246019 67.820066 8.776669 67.820066 7.840214 C 67.820066 7.642593 67.770661 7.460692 67.67185 7.294511 C 67.57304 7.128329 67.400121 6.962148 67.150849 6.795967 C 66.903823 6.627539 66.683745 6.492798 66.492861 6.393987 C 66.301977 6.295177 65.992071 6.144715 65.556406 5.944848 C 65.125233 5.742736 64.804099 5.587783 64.595249 5.484481 C 63.730657 5.055554 63.06144 4.521078 62.587599 3.881056 C 62.113757 3.241033 61.875714 2.551605 61.875714 1.812771 C 61.875714 0.528234 62.349555 -0.520505 63.297238 -1.335692 C 64.244921 -2.150879 65.3251 -2.559595 66.537775 -2.559595 Z M 72.015023 0.564165 L 72.015023 -2.296849 L 82.062258 -2.296849 L 82.062258 0.564165 L 78.669014 0.564165 L 78.669014 11.99924 L 75.410512 11.99924 L 75.410512 0.564165 Z M 94.229429 -2.296849 L 94.229429 6.923971 C 94.229429 8.677858 93.755587 10.005063 92.807904 10.907832 C 91.860221 11.808356 90.474628 12.257495 88.648879 12.257495 C 86.825375 12.257495 85.437536 11.808356 84.489853 10.907832 C 83.54217 10.005063 83.068329 8.677858 83.068329 6.923971 L 83.068329 -2.296849 L 86.326831 -2.296849 L 86.326831 5.971797 C 86.326831 7.123838 86.508732 7.927796 86.872535 8.379181 C 87.236337 8.830565 87.829201 9.055135 88.648879 9.055135 C 89.470803 9.055135 90.063666 8.830565 90.427469 8.379181 C 90.791271 7.927796 90.973172 7.123838 90.973172 5.971797 L 90.973172 -2.296849 Z M 96.133777 -2.296849 L 100.277083 -2.296849 C 102.262277 -2.296849 103.960021 -1.618649 105.370317 -0.26225 C 106.780613 1.096395 107.485761 2.796385 107.485761 4.842213 C 107.485761 6.897023 106.785104 8.605996 105.3793 9.964641 C 103.975741 11.32104 102.273505 11.99924 100.277083 11.99924 L 96.133777 11.99924 Z M 99.39228 9.08882 L 99.895315 9.08882 C 101.083287 9.08882 102.055673 8.689087 102.810226 7.887374 C 103.569271 7.083415 103.95553 6.072853 103.966758 4.857933 C 103.966758 3.645258 103.587236 2.634695 102.832683 1.828491 C 102.075884 1.020041 101.096761 0.613571 99.895315 0.613571 L 99.39228 0.613571 Z M 112.181507 -2.296849 L 112.181507 11.99924 L 108.923005 11.99924 L 108.923005 -2.296849 Z M 113.616506 4.842213 C 113.616506 2.773928 114.321654 1.024533 115.73195 -0.410466 C 117.142246 -1.843219 118.83999 -2.559595 120.82743 -2.559595 C 122.826097 -2.559595 124.523842 -1.845464 125.920664 -0.417203 C 127.319731 1.008813 128.018142 2.7627 128.018142 4.842213 C 128.018142 6.9352 127.33096 8.693578 125.954349 10.12184 C 124.579985 11.54561 122.871011 12.257495 120.82743 12.257495 C 118.736689 12.257495 117.011995 11.552347 115.651105 10.137559 C 114.294706 8.722772 113.616506 6.957657 113.616506 4.842213 Z M 117.137754 4.842213 C 117.137754 5.59452 117.252285 6.279457 117.483591 6.897023 C 117.714898 7.514589 118.119123 8.037835 118.69402 8.466763 C 119.271164 8.893445 119.983049 9.106786 120.82743 9.106786 C 122.040105 9.106786 122.954102 8.689087 123.571668 7.85818 C 124.189234 7.025027 124.49914 6.021202 124.49914 4.842213 C 124.49914 3.676697 124.184742 2.675118 123.555948 1.837474 C 122.927154 0.99983 122.017648 0.579885 120.82743 0.579885 C 119.646195 0.579885 118.736689 0.99983 118.096666 1.837474 C 117.456643 2.675118 117.137754 3.676697 117.137754 4.842213 Z M 117.137754 4.842213 " stroke="#ffdf2b" stroke-width="0.649999" stroke-opacity="1" stroke-miterlimit="4"/><path stroke-linecap="round" transform="matrix(0, -0.75, 0.75, 0, 131.456847, 120.97265)" fill="none" stroke-linejoin="miter" d="M 1.999992 2.000246 L 120.604166 2.000246 " stroke="#fcfcfc" stroke-width="4" stroke-opacity="1" stroke-miterlimit="4"/></svg>