<svg xmlns="http://www.w3.org/2000/svg" xmlns:xlink="http://www.w3.org/1999/xlink" width="200" zoomAndPan="magnify" viewBox="0 0 150 149.999998" height="200" preserveAspectRatio="xMidYMid meet" version="1.0"><defs><clipPath id="6899175f0b"><path d="M 19.847656 20.640625 L 129.507812 20.640625 L 129.507812 130.296875 L 19.847656 130.296875 Z M 19.847656 20.640625 " clip-rule="nonzero"/></clipPath><clipPath id="0dcec2c722"><path d="M 74.679688 20.640625 C 44.398438 20.640625 19.847656 45.1875 19.847656 75.46875 C 19.847656 105.75 44.398438 130.296875 74.679688 130.296875 C 104.960938 130.296875 129.507812 105.75 129.507812 75.46875 C 129.507812 45.1875 104.960938 20.640625 74.679688 20.640625 Z M 74.679688 20.640625 " clip-rule="nonzero"/></clipPath><clipPath id="fd872d798c"><path d="M 10.753906 10.753906 L 139.15625 10.753906 L 139.15625 139.15625 L 10.753906 139.15625 Z M 10.753906 10.753906 " clip-rule="nonzero"/></clipPath><clipPath id="55a8abbf5b"><path d="M 75 10.753906 C 39.519531 10.753906 10.753906 39.519531 10.753906 75 C 10.753906 110.480469 39.519531 139.242188 75 139.242188 C 110.480469 139.242188 139.242188 110.480469 139.242188 75 C 139.242188 39.519531 110.480469 10.753906 75 10.753906 Z M 75 10.753906 " clip-rule="nonzero"/></clipPath></defs><path stroke-linecap="round" transform="matrix(-0.3, 0, 0, -0.3, 108.564391, 65.628001)" fill="none" stroke-linejoin="miter" d="M 7.506303 7.496982 L 37.688597 7.496982 " stroke="#ffdf2b" stroke-width="15" stroke-opacity="1" stroke-miterlimit="4"/><path stroke-linecap="round" transform="matrix(0.150535, -0.259498, 0.259498, 0.150535, 89.355656, 72.232455)" fill="none" stroke-linejoin="miter" d="M 7.501331 7.494545 L 37.682135 7.493424 " stroke="#ffdf2b" stroke-width="15" stroke-opacity="1" stroke-miterlimit="4"/><path stroke-linecap="round" transform="matrix(-0.048693, -0.296022, 0.296022, -0.048693, 90.408277, 73.702248)" fill="none" stroke-linejoin="miter" d="M 7.499834 7.494821 L 51.281888 7.504866 " stroke="#ffdf2b" stroke-width="15" stroke-opacity="1" stroke-miterlimit="4"/><path stroke-linecap="round" transform="matrix(0.0786163, -0.289516, 0.289516, 0.0786163, 80.670757, 83.940108)" fill="none" stroke-linejoin="miter" d="M 7.498348 7.50682 L 90.918284 7.494793 " stroke="#ffdf2b" stroke-width="15" stroke-opacity="1" stroke-miterlimit="4"/><path stroke-linecap="round" transform="matrix(-0.028196, -0.298672, 0.298672, -0.028196, 81.420817, 84.558739)" fill="none" stroke-linejoin="miter" d="M 7.492929 7.498767 L 142.151514 7.498624 " stroke="#ffdf2b" stroke-width="15" stroke-opacity="1" stroke-miterlimit="4"/><path stroke-linecap="round" transform="matrix(0.0517128, -0.295509, 0.295509, 0.0517128, 71.636716, 72.925443)" fill="none" stroke-linejoin="miter" d="M 7.496248 7.491853 L 106.808934 7.495162 " stroke="#ffdf2b" stroke-width="15" stroke-opacity="1" stroke-miterlimit="4"/><path stroke-linecap="round" transform="matrix(0.3, 0, 0, 0.3, 41.431998, 84.521195)" fill="none" stroke-linejoin="miter" d="M 7.505319 7.507474 L 37.401155 7.507474 " stroke="#fcfcfc" stroke-width="15" stroke-opacity="1" stroke-miterlimit="4"/><path stroke-linecap="round" transform="matrix(-0.150535, 0.259498, -0.259498, -0.150535, 60.533691, 77.979518)" fill="none" stroke-linejoin="miter" d="M 7.502741 7.503854 L 37.39768 7.502981 " stroke="#fcfcfc" stroke-width="15" stroke-opacity="1" stroke-miterlimit="4"/><path stroke-linecap="round" transform="matrix(0.048693, 0.296022, -0.296022, 0.048693, 59.48995, 76.507416)" fill="none" stroke-linejoin="miter" d="M 7.502023 7.507664 L 50.90514 7.494965 " stroke="#fcfcfc" stroke-width="15" stroke-opacity="1" stroke-miterlimit="4"/><path stroke-linecap="round" transform="matrix(-0.0786163, 0.289516, -0.289516, -0.0786163, 69.167107, 66.342896)" fill="none" stroke-linejoin="miter" d="M 7.503545 7.498571 L 90.304508 7.492714 " stroke="#fcfcfc" stroke-width="15" stroke-opacity="1" stroke-miterlimit="4"/><path stroke-linecap="round" transform="matrix(0.028196, 0.298672, -0.298672, 0.028196, 68.42063, 65.72233)" fill="none" stroke-linejoin="miter" d="M 7.493028 7.504145 L 141.21092 7.493669 " stroke="#fcfcfc" stroke-width="15" stroke-opacity="1" stroke-miterlimit="4"/><path stroke-linecap="round" transform="matrix(-0.0517128, 0.295509, -0.295509, -0.0517128, 78.144049, 77.287315)" fill="none" stroke-linejoin="miter" d="M 7.505064 7.501891 L 106.102705 7.498142 " stroke="#fcfcfc" stroke-width="15" stroke-opacity="1" stroke-miterlimit="4"/><g clip-path="url(#6899175f0b)"><g clip-path="url(#0dcec2c722)"><path stroke-linecap="butt" transform="matrix(0.3, 0, 0, 0.3, 19.849202, 20.640001)" fill="none" stroke-linejoin="miter" d="M 182.768295 0.00208068 C 81.830789 0.00208068 -0.00515334 81.825002 -0.00515334 182.762508 C -0.00515334 283.700014 81.830789 365.522935 182.768295 365.522935 C 283.705801 365.522935 365.528722 283.700014 365.528722 182.762508 C 365.528722 81.825002 283.705801 0.00208068 182.768295 0.00208068 Z M 182.768295 0.00208068 " stroke="#ffdf2b" stroke-width="8" stroke-opacity="1" stroke-miterlimit="4"/></g></g><g clip-path="url(#fd872d798c)"><g clip-path="url(#55a8abbf5b)"><path stroke-linecap="butt" transform="matrix(0.3, 0, 0, 0.3, 10.754801, 10.754802)" fill="none" stroke-linejoin="miter" d="M 214.150676 -0.00298481 C 95.88244 -0.00298481 -0.00298231 95.882437 -0.00298231 214.150674 C -0.00298231 332.41891 95.88244 428.291311 214.150676 428.291311 C 332.418912 428.291311 428.291314 332.41891 428.291314 214.150674 C 428.291314 95.882437 332.418912 -0.00298481 214.150676 -0.00298481 Z M 214.150676 -0.00298481 " stroke="#fcfcfc" stroke-width="34" stroke-opacity="1" stroke-miterlimit="4"/></g></g></svg>