<svg xmlns="http://www.w3.org/2000/svg" xmlns:xlink="http://www.w3.org/1999/xlink" width="140" zoomAndPan="magnify" viewBox="0 0 104.88 44.999999" height="60" preserveAspectRatio="xMidYMid meet" version="1.0"><defs><g/><clipPath id="68bbda504a"><path d="M 2.441406 11.539062 L 24.347656 11.539062 L 24.347656 33.445312 L 2.441406 33.445312 Z M 2.441406 11.539062 " clip-rule="nonzero"/></clipPath><clipPath id="7f8b370345"><path d="M 13.394531 11.539062 C 7.347656 11.539062 2.441406 16.441406 2.441406 22.492188 C 2.441406 28.542969 7.347656 33.445312 13.394531 33.445312 C 19.445312 33.445312 24.347656 28.542969 24.347656 22.492188 C 24.347656 16.441406 19.445312 11.539062 13.394531 11.539062 Z M 13.394531 11.539062 " clip-rule="nonzero"/></clipPath><clipPath id="08ff7b3f49"><path d="M 0.625 9.5625 L 26.277344 9.5625 L 26.277344 35.214844 L 0.625 35.214844 Z M 0.625 9.5625 " clip-rule="nonzero"/></clipPath><clipPath id="dc9b268dee"><path d="M 13.460938 9.5625 C 6.371094 9.5625 0.625 15.308594 0.625 22.398438 C 0.625 29.484375 6.371094 35.230469 13.460938 35.230469 C 20.546875 35.230469 26.292969 29.484375 26.292969 22.398438 C 26.292969 15.308594 20.546875 9.5625 13.460938 9.5625 Z M 13.460938 9.5625 " clip-rule="nonzero"/></clipPath><clipPath id="549af1e47b"><path d="M 37 20 L 104.761719 20 L 104.761719 32 L 37 32 Z M 37 20 " clip-rule="nonzero"/></clipPath></defs><path stroke-linecap="round" transform="matrix(-0.0599314, 0, 0, -0.0599314, 20.164577, 20.525663)" fill="none" stroke-linejoin="miter" d="M 7.504123 7.467509 L 37.681842 7.467509 " stroke="#ffdf2b" stroke-width="15" stroke-opacity="1" stroke-miterlimit="4"/><path stroke-linecap="round" transform="matrix(0.0300725, -0.0518403, 0.0518403, 0.0300725, 16.327217, 21.845044)" fill="none" stroke-linejoin="miter" d="M 7.472587 7.512877 L 37.668301 7.477927 " stroke="#ffdf2b" stroke-width="15" stroke-opacity="1" stroke-miterlimit="4"/><path stroke-linecap="round" transform="matrix(-0.00972747, -0.0591367, 0.0591367, -0.00972747, 16.537502, 22.138669)" fill="none" stroke-linejoin="miter" d="M 7.522939 7.472979 L 51.252185 7.466109 " stroke="#ffdf2b" stroke-width="15" stroke-opacity="1" stroke-miterlimit="4"/><path stroke-linecap="round" transform="matrix(0.0157053, -0.057837, 0.057837, 0.0157053, 14.592223, 24.1839)" fill="none" stroke-linejoin="miter" d="M 7.514907 7.508759 L 90.919391 7.486309 " stroke="#ffdf2b" stroke-width="15" stroke-opacity="1" stroke-miterlimit="4"/><path stroke-linecap="round" transform="matrix(-0.00563275, -0.0596661, 0.0596661, -0.00563275, 14.742065, 24.307485)" fill="none" stroke-linejoin="miter" d="M 7.520447 7.520745 L 142.123003 7.526954 " stroke="#ffdf2b" stroke-width="15" stroke-opacity="1" stroke-miterlimit="4"/><path stroke-linecap="round" transform="matrix(0.0103307, -0.0590343, 0.0590343, 0.0103307, 12.78748, 21.983483)" fill="none" stroke-linejoin="miter" d="M 7.519263 7.511456 L 106.83162 7.46854 " stroke="#ffdf2b" stroke-width="15" stroke-opacity="1" stroke-miterlimit="4"/><path stroke-linecap="round" transform="matrix(0.0599314, 0, 0, 0.0599314, 6.753441, 24.299984)" fill="none" stroke-linejoin="miter" d="M 7.503312 7.508844 L 37.420316 7.508844 " stroke="#fcfcfc" stroke-width="15" stroke-opacity="1" stroke-miterlimit="4"/><path stroke-linecap="round" transform="matrix(-0.0300725, 0.0518403, -0.0518403, -0.0300725, 10.569414, 22.993143)" fill="none" stroke-linejoin="miter" d="M 7.514075 7.529308 L 37.41886 7.512425 " stroke="#fcfcfc" stroke-width="15" stroke-opacity="1" stroke-miterlimit="4"/><path stroke-linecap="round" transform="matrix(0.00972747, 0.0591367, -0.0591367, 0.00972747, 10.360904, 22.699061)" fill="none" stroke-linejoin="miter" d="M 7.482934 7.531918 L 50.890608 7.472152 " stroke="#fcfcfc" stroke-width="15" stroke-opacity="1" stroke-miterlimit="4"/><path stroke-linecap="round" transform="matrix(-0.0157053, 0.057837, -0.057837, -0.0157053, 12.294123, 20.66848)" fill="none" stroke-linejoin="miter" d="M 7.500119 7.506338 L 90.304335 7.51181 " stroke="#fcfcfc" stroke-width="15" stroke-opacity="1" stroke-miterlimit="4"/><path stroke-linecap="round" transform="matrix(0.00563275, 0.0596661, -0.0596661, 0.00563275, 12.144999, 20.544507)" fill="none" stroke-linejoin="miter" d="M 7.512773 7.525798 L 141.200741 7.511134 " stroke="#fcfcfc" stroke-width="15" stroke-opacity="1" stroke-miterlimit="4"/><path stroke-linecap="round" transform="matrix(-0.0103307, 0.0590343, -0.0590343, -0.0103307, 14.087459, 22.854859)" fill="none" stroke-linejoin="miter" d="M 7.479562 7.517376 L 106.138653 7.52261 " stroke="#fcfcfc" stroke-width="15" stroke-opacity="1" stroke-miterlimit="4"/><g clip-path="url(#68bbda504a)"><g clip-path="url(#7f8b370345)"><path stroke-linecap="butt" transform="matrix(0.0599314, 0, 0, 0.0599314, 2.441814, 11.538346)" fill="none" stroke-linejoin="miter" d="M 182.754161 0.01195 C 81.857596 0.01195 -0.00679955 81.811167 -0.00679955 182.772911 C -0.00679955 283.734654 81.857596 365.533871 182.754161 365.533871 C 283.715904 365.533871 365.515122 283.734654 365.515122 182.772911 C 365.515122 81.811167 283.715904 0.01195 182.754161 0.01195 Z M 182.754161 0.01195 " stroke="#ffdf2b" stroke-width="8" stroke-opacity="1" stroke-miterlimit="4"/></g></g><g clip-path="url(#08ff7b3f49)"><g clip-path="url(#dc9b268dee)"><path stroke-linecap="butt" transform="matrix(0.0599314, 0, 0, 0.0599314, 0.625013, 9.563566)" fill="none" stroke-linejoin="miter" d="M 214.176863 -0.0177836 C 95.877596 -0.0177836 -0.000211316 95.860024 -0.000211316 214.159291 C -0.000211316 332.393379 95.877596 428.271187 214.176863 428.271187 C 332.410951 428.271187 428.288759 332.393379 428.288759 214.159291 C 428.288759 95.860024 332.410951 -0.0177836 214.176863 -0.0177836 Z M 214.176863 -0.0177836 " stroke="#fcfcfc" stroke-width="34" stroke-opacity="1" stroke-miterlimit="4"/></g></g><g fill="#fcfcfc" fill-opacity="1"><g transform="translate(38.584759, 20.63426)"><g><path d="M 9.546875 0 L 0.828125 0 L 0.828125 -7.46875 L 3.96875 -7.46875 L 3.96875 -1.84375 L 9.546875 -1.84375 Z M 9.546875 0 "/></g></g></g><g fill="#fcfcfc" fill-opacity="1"><g transform="translate(48.346863, 20.63426)"><g><path d="M 12.546875 0 L 9.359375 0 L 8.65625 -1.21875 L 3.953125 -1.21875 L 3.25 0 L 0.078125 0 L 4.859375 -7.46875 L 7.765625 -7.46875 Z M 7.609375 -3.0625 L 6.3125 -5.328125 L 5.015625 -3.0625 Z M 7.609375 -3.0625 "/></g></g></g><g fill="#fcfcfc" fill-opacity="1"><g transform="translate(60.972518, 20.63426)"><g><path d="M 6.1875 0 L 0.828125 0 L 0.828125 -7.46875 L 6.296875 -7.46875 C 7.273438 -7.46875 8.078125 -7.421875 8.703125 -7.328125 C 9.328125 -7.242188 9.804688 -7.101562 10.140625 -6.90625 C 10.484375 -6.71875 10.71875 -6.476562 10.84375 -6.1875 C 10.96875 -5.894531 11.03125 -5.546875 11.03125 -5.140625 C 11.019531 -4.828125 10.929688 -4.5625 10.765625 -4.34375 C 10.597656 -4.132812 10.40625 -3.976562 10.1875 -3.875 C 9.96875 -3.78125 9.773438 -3.734375 9.609375 -3.734375 C 9.765625 -3.734375 9.953125 -3.695312 10.171875 -3.625 C 10.390625 -3.5625 10.601562 -3.46875 10.8125 -3.34375 C 11.019531 -3.226562 11.191406 -3.082031 11.328125 -2.90625 C 11.460938 -2.738281 11.53125 -2.546875 11.53125 -2.328125 C 11.53125 -2.035156 11.492188 -1.765625 11.421875 -1.515625 C 11.359375 -1.273438 11.222656 -1.0625 11.015625 -0.875 C 10.816406 -0.6875 10.519531 -0.523438 10.125 -0.390625 C 9.726562 -0.265625 9.210938 -0.164062 8.578125 -0.09375 C 7.941406 -0.03125 7.144531 0 6.1875 0 Z M 6.015625 -4.375 C 6.472656 -4.375 6.828125 -4.394531 7.078125 -4.4375 C 7.328125 -4.476562 7.5 -4.546875 7.59375 -4.640625 C 7.695312 -4.734375 7.75 -4.851562 7.75 -5 C 7.75 -5.144531 7.695312 -5.257812 7.59375 -5.34375 C 7.5 -5.4375 7.328125 -5.503906 7.078125 -5.546875 C 6.828125 -5.597656 6.472656 -5.625 6.015625 -5.625 L 3.96875 -5.625 L 3.96875 -4.375 Z M 6.015625 -1.84375 C 6.484375 -1.84375 6.863281 -1.851562 7.15625 -1.875 C 7.445312 -1.90625 7.660156 -1.960938 7.796875 -2.046875 C 7.929688 -2.128906 8 -2.269531 8 -2.46875 C 8 -2.65625 7.929688 -2.789062 7.796875 -2.875 C 7.660156 -2.96875 7.445312 -3.023438 7.15625 -3.046875 C 6.863281 -3.078125 6.484375 -3.09375 6.015625 -3.09375 L 3.96875 -3.09375 L 3.96875 -1.84375 Z M 6.015625 -1.84375 "/></g></g></g><g clip-path="url(#549af1e47b)"><path stroke-linecap="butt" transform="matrix(0.513507, 0, 0, 0.513507, 38.584759, 23.406527)" fill="none" stroke-linejoin="miter" d="M 4.954453 6.260021 L 4.954453 12.003306 L 1.698657 12.003306 L 1.698657 -2.297854 L 4.954453 -2.297854 L 4.954453 3.399789 L 9.564295 3.399789 L 9.564295 -2.297854 L 12.820091 -2.297854 L 12.820091 12.003306 L 9.564295 12.003306 L 9.564295 6.260021 Z M 14.257814 4.837512 C 14.257814 2.776015 14.965265 1.026405 16.37256 -0.411318 C 17.787462 -1.841434 19.483823 -2.556492 21.46925 -2.556492 C 23.469891 -2.556492 25.166252 -1.841434 26.558333 -0.418925 C 27.958021 1.011191 28.657865 2.760801 28.657865 4.837512 C 28.657865 6.937044 27.973235 8.694261 26.596368 10.124377 C 25.219501 11.546886 23.515533 12.254337 21.46925 12.254337 C 19.377325 12.254337 17.650536 11.554493 16.29649 10.139591 C 14.934837 8.724689 14.257814 6.959865 14.257814 4.837512 Z M 17.779855 4.837512 C 17.779855 5.590605 17.89396 6.282842 18.12217 6.899009 C 18.357987 7.515176 18.761158 8.040059 19.331683 8.466051 C 19.909815 8.892043 20.624873 9.105039 21.46925 9.105039 C 22.678763 9.105039 23.59921 8.686654 24.215377 7.857491 C 24.831544 7.028328 25.143431 6.016597 25.143431 4.837512 C 25.143431 3.673641 24.823937 2.677124 24.200163 1.840354 C 23.568782 0.995977 22.655942 0.577592 21.46925 0.577592 C 20.290165 0.577592 19.377325 0.995977 18.738337 1.840354 C 18.099349 2.677124 17.779855 3.673641 17.779855 4.837512 Z M 41.916866 12.003306 L 41.239843 3.529108 L 41.156166 3.529108 L 38.227471 11.912022 L 36.280079 11.912022 L 33.358991 3.529108 L 33.267707 3.529108 L 32.590684 12.003306 L 29.334888 12.003306 L 30.620471 -2.297854 L 34.081656 -2.297854 L 37.253775 5.948134 L 40.425894 -2.297854 L 43.887079 -2.297854 L 45.172662 12.003306 Z M 54.666198 -2.297854 L 54.666198 0.562378 L 49.744469 0.562378 L 49.744469 3.399789 L 54.460809 3.399789 L 54.460809 6.260021 L 49.744469 6.260021 L 49.744469 9.143074 L 54.666198 9.143074 L 54.666198 12.003306 L 46.488673 12.003306 L 46.488673 -2.297854 Z M 66.540725 -2.556492 C 67.309032 -2.556492 68.069732 -2.442387 68.807611 -2.221784 C 69.54549 -1.993574 70.100801 -1.772971 70.45833 -1.552368 L 70.975606 -1.202446 L 69.659595 1.391541 C 69.553097 1.323078 69.408564 1.239401 69.218389 1.125296 C 69.035821 1.018798 68.693506 0.866658 68.183837 0.68409 C 67.674168 0.501522 67.202534 0.410238 66.761328 0.410238 C 66.221231 0.410238 65.802846 0.524343 65.506173 0.752553 C 65.2095 0.98837 65.064967 1.300257 65.064967 1.688214 C 65.064967 1.885996 65.13343 2.068564 65.270356 2.235918 C 65.414889 2.403272 65.650706 2.578233 65.985414 2.776015 C 66.320122 2.958583 66.616795 3.110723 66.867826 3.232435 C 67.118857 3.34654 67.514421 3.521501 68.046911 3.749711 C 68.967358 4.145275 69.758486 4.677765 70.412688 5.354788 C 71.06689 6.031811 71.393991 6.792511 71.393991 7.652102 C 71.393991 8.473658 71.241851 9.188716 70.945178 9.797276 C 70.656112 10.413443 70.245334 10.892684 69.735665 11.234999 C 69.218389 11.584921 68.647864 11.843559 68.02409 12.010913 C 67.407923 12.178267 66.7309 12.254337 66.000628 12.254337 C 65.376854 12.254337 64.768294 12.193481 64.167341 12.064162 C 63.566388 11.94245 63.056719 11.782703 62.653548 11.592528 C 62.250377 11.402353 61.885241 11.212178 61.565747 11.02961 C 61.238646 10.847042 61.002829 10.687295 60.850689 10.557976 L 60.630086 10.367801 L 62.257984 7.636888 C 62.39491 7.750993 62.585085 7.895526 62.828509 8.078094 C 63.071933 8.253055 63.497925 8.496479 64.121699 8.800759 C 64.737866 9.097432 65.28557 9.241965 65.757204 9.241965 C 67.134071 9.241965 67.818701 8.777938 67.818701 7.842277 C 67.818701 7.644495 67.773059 7.461927 67.674168 7.294573 C 67.575277 7.127219 67.400316 6.959865 67.149285 6.792511 C 66.905861 6.625157 66.685258 6.495838 66.495083 6.396947 C 66.304908 6.298056 65.993021 6.145916 65.559422 5.948134 C 65.125823 5.742745 64.806329 5.590605 64.593333 5.484107 C 63.733742 5.058115 63.056719 4.518018 62.585085 3.87903 C 62.113451 3.240042 61.877634 2.547805 61.877634 1.809926 C 61.877634 0.53195 62.349268 -0.517816 63.300143 -1.339372 C 64.243411 -2.153321 65.323605 -2.556492 66.540725 -2.556492 Z M 72.017765 0.562378 L 72.017765 -2.297854 L 82.059005 -2.297854 L 82.059005 0.562378 L 78.666283 0.562378 L 78.666283 12.003306 L 75.410487 12.003306 L 75.410487 0.562378 Z M 94.230205 -2.297854 L 94.230205 6.92183 C 94.230205 8.679047 93.758571 10.002665 92.807696 10.907898 C 91.864428 11.805524 90.472347 12.254337 88.646667 12.254337 C 86.828594 12.254337 85.436513 11.805524 84.493245 10.907898 C 83.54237 10.002665 83.070736 8.679047 83.070736 6.92183 L 83.070736 -2.297854 L 86.326532 -2.297854 L 86.326532 5.970955 C 86.326532 7.127219 86.5091 7.925954 86.874236 8.374767 C 87.239372 8.831187 87.832718 9.05179 88.646667 9.05179 C 89.468223 9.05179 90.061569 8.831187 90.426705 8.374767 C 90.791841 7.925954 90.974409 7.127219 90.974409 5.970955 L 90.974409 -2.297854 Z M 96.131955 -2.297854 L 100.27777 -2.297854 C 102.263197 -2.297854 103.959558 -1.620831 105.37446 -0.259178 C 106.781755 1.094868 107.489206 2.798836 107.489206 4.837512 C 107.489206 6.899009 106.781755 8.602977 105.382067 9.96463 C 103.974772 11.318676 102.270804 12.003306 100.27777 12.003306 L 96.131955 12.003306 Z M 99.395358 9.089825 L 99.89742 9.089825 C 101.084112 9.089825 102.057808 8.686654 102.810901 7.887919 C 103.571601 7.081577 103.951951 6.077453 103.967165 4.860333 C 103.967165 3.643213 103.586815 2.639089 102.833722 1.82514 C 102.073022 1.018798 101.099326 0.615627 99.89742 0.615627 L 99.395358 0.615627 Z M 112.182725 -2.297854 L 112.182725 12.003306 L 108.919322 12.003306 L 108.919322 -2.297854 Z M 113.620448 4.837512 C 113.620448 2.776015 114.320292 1.026405 115.735194 -0.411318 C 117.142489 -1.841434 118.83885 -2.556492 120.824277 -2.556492 C 122.824918 -2.556492 124.521279 -1.841434 125.920967 -0.418925 C 127.320655 1.011191 128.020499 2.760801 128.020499 4.837512 C 128.020499 6.937044 127.328262 8.694261 125.951395 10.124377 C 124.582135 11.546886 122.87056 12.254337 120.824277 12.254337 C 118.739959 12.254337 117.01317 11.554493 115.651517 10.139591 C 114.297471 8.724689 113.620448 6.959865 113.620448 4.837512 Z M 117.134882 4.837512 C 117.134882 5.590605 117.248987 6.282842 117.484804 6.899009 C 117.713014 7.515176 118.116185 8.040059 118.694317 8.466051 C 119.272449 8.892043 119.9799 9.105039 120.824277 9.105039 C 122.041397 9.105039 122.954237 8.686654 123.570404 7.857491 C 124.186571 7.028328 124.498458 6.016597 124.498458 4.837512 C 124.498458 3.673641 124.186571 2.677124 123.55519 1.840354 C 122.923809 0.995977 122.018576 0.577592 120.824277 0.577592 C 119.645192 0.577592 118.739959 0.995977 118.100971 1.840354 C 117.454376 2.677124 117.134882 3.673641 117.134882 4.837512 Z M 117.134882 4.837512 " stroke="#ffdf2b" stroke-width="0.649999" stroke-opacity="1" stroke-miterlimit="4"/></g><path stroke-linecap="round" transform="matrix(0.0000000013075, -0.749143, 0.749143, 0.0000000013075, 32.251323, 33.788707)" fill="none" stroke-linejoin="miter" d="M 0.500097 0.498806 L 29.606279 0.498806 " stroke="#fcfcfc" stroke-width="1" stroke-opacity="1" stroke-miterlimit="4"/></svg>