<svg xmlns="http://www.w3.org/2000/svg" xmlns:xlink="http://www.w3.org/1999/xlink" width="40" zoomAndPan="magnify" viewBox="0 0 30 30.000001" height="40" preserveAspectRatio="xMidYMid meet" version="1.0"><defs><clipPath id="5930206a1c"><path d="M 12 0 L 29.515625 0 L 29.515625 24 L 12 24 Z M 12 0 " clip-rule="nonzero"/></clipPath><clipPath id="2375406798"><path d="M 11 0 L 29.515625 0 L 29.515625 23 L 11 23 Z M 11 0 " clip-rule="nonzero"/></clipPath><clipPath id="a1e06aaa7e"><path d="M 8 0 L 29.515625 0 L 29.515625 28 L 8 28 Z M 8 0 " clip-rule="nonzero"/></clipPath><clipPath id="eef78a2af8"><path d="M 0.484375 6 L 19 6 L 19 29 L 0.484375 29 Z M 0.484375 6 " clip-rule="nonzero"/></clipPath><clipPath id="8f98c1a559"><path d="M 0.484375 6 L 20 6 L 20 29.03125 L 0.484375 29.03125 Z M 0.484375 6 " clip-rule="nonzero"/></clipPath><clipPath id="bed5a61ad3"><path d="M 0.484375 1 L 23 1 L 23 29.03125 L 0.484375 29.03125 Z M 0.484375 1 " clip-rule="nonzero"/></clipPath><clipPath id="c16b761b27"><path d="M 2 2 L 24 2 L 24 29.03125 L 2 29.03125 Z M 2 2 " clip-rule="nonzero"/></clipPath><clipPath id="4269b4539b"><path d="M 3 6 L 26 6 L 26 29.03125 L 3 29.03125 Z M 3 6 " clip-rule="nonzero"/></clipPath><clipPath id="9cbc12e26f"><path d="M 0.484375 0 L 29.515625 0 L 29.515625 29.03125 L 0.484375 29.03125 Z M 0.484375 0 " clip-rule="nonzero"/></clipPath><clipPath id="d2d38af286"><path d="M 15.382812 -6.453125 C 3.660156 -6.453125 -5.84375 3.050781 -5.84375 14.769531 C -5.84375 26.492188 3.660156 35.996094 15.382812 35.996094 C 27.101562 35.996094 36.605469 26.492188 36.605469 14.769531 C 36.605469 3.050781 27.101562 -6.453125 15.382812 -6.453125 Z M 15.382812 -6.453125 " clip-rule="nonzero"/></clipPath><clipPath id="d0f7f755bd"><path d="M 0.484375 0 L 29.515625 0 L 29.515625 29.03125 L 0.484375 29.03125 Z M 0.484375 0 " clip-rule="nonzero"/></clipPath><clipPath id="a4a06e2541"><path d="M 15.503906 -10.28125 C 1.769531 -10.28125 -9.363281 0.855469 -9.363281 14.589844 C -9.363281 28.324219 1.769531 39.457031 15.503906 39.457031 C 29.238281 39.457031 40.375 28.324219 40.375 14.589844 C 40.375 0.855469 29.238281 -10.28125 15.503906 -10.28125 Z M 15.503906 -10.28125 " clip-rule="nonzero"/></clipPath></defs><path stroke-linecap="round" transform="matrix(-0.116129, 0, 0, -0.116129, 28.498185, 10.961976)" fill="none" stroke-linejoin="miter" d="M 7.485455 7.510026 L 37.691618 7.510026 " stroke="#ffdf2b" stroke-width="15" stroke-opacity="1" stroke-miterlimit="4"/><g clip-path="url(#5930206a1c)"><path stroke-linecap="round" transform="matrix(0.0582715, -0.100451, 0.100451, 0.0582715, 21.062542, 13.518537)" fill="none" stroke-linejoin="miter" d="M 7.497133 7.51108 L 37.670913 7.506505 " stroke="#ffdf2b" stroke-width="15" stroke-opacity="1" stroke-miterlimit="4"/></g><g clip-path="url(#2375406798)"><path stroke-linecap="round" transform="matrix(-0.0188489, -0.114589, 0.114589, -0.0188489, 21.470007, 14.087492)" fill="none" stroke-linejoin="miter" d="M 7.507318 7.496324 L 51.276699 7.503185 " stroke="#ffdf2b" stroke-width="15" stroke-opacity="1" stroke-miterlimit="4"/></g><g clip-path="url(#a1e06aaa7e)"><path stroke-linecap="round" transform="matrix(0.0304321, -0.112071, 0.112071, 0.0304321, 17.700644, 18.050535)" fill="none" stroke-linejoin="miter" d="M 7.506462 7.499278 L 90.916757 7.505611 " stroke="#ffdf2b" stroke-width="15" stroke-opacity="1" stroke-miterlimit="4"/></g><path stroke-linecap="round" transform="matrix(-0.0109146, -0.115615, 0.115615, -0.0109146, 17.990992, 18.290005)" fill="none" stroke-linejoin="miter" d="M 7.509312 7.510384 L 142.14871 7.51715 " stroke="#ffdf2b" stroke-width="15" stroke-opacity="1" stroke-miterlimit="4"/><path stroke-linecap="round" transform="matrix(0.0200179, -0.114391, 0.114391, 0.0200179, 14.2036, 13.786791)" fill="none" stroke-linejoin="miter" d="M 7.506299 7.492547 L 106.810247 7.496281 " stroke="#ffdf2b" stroke-width="15" stroke-opacity="1" stroke-miterlimit="4"/><path stroke-linecap="round" transform="matrix(0.116129, 0, 0, 0.116129, 2.51145, 18.275471)" fill="none" stroke-linejoin="miter" d="M 7.503403 7.517208 L 37.406832 7.517208 " stroke="#fcfcfc" stroke-width="15" stroke-opacity="1" stroke-miterlimit="4"/><g clip-path="url(#eef78a2af8)"><path stroke-linecap="round" transform="matrix(-0.0582715, 0.100451, -0.100451, -0.0582715, 9.905656, 15.743208)" fill="none" stroke-linejoin="miter" d="M 7.494554 7.507083 L 37.397151 7.504277 " stroke="#fcfcfc" stroke-width="15" stroke-opacity="1" stroke-miterlimit="4"/></g><g clip-path="url(#8f98c1a559)"><path stroke-linecap="round" transform="matrix(0.0188489, 0.114589, -0.114589, 0.0188489, 9.501625, 15.173365)" fill="none" stroke-linejoin="miter" d="M 7.516071 7.488828 L 50.90943 7.502015 " stroke="#fcfcfc" stroke-width="15" stroke-opacity="1" stroke-miterlimit="4"/></g><g clip-path="url(#bed5a61ad3)"><path stroke-linecap="round" transform="matrix(-0.0304321, 0.112071, -0.112071, -0.0304321, 13.247624, 11.238711)" fill="none" stroke-linejoin="miter" d="M 7.502793 7.491796 L 90.317166 7.485671 " stroke="#fcfcfc" stroke-width="15" stroke-opacity="1" stroke-miterlimit="4"/></g><g clip-path="url(#c16b761b27)"><path stroke-linecap="round" transform="matrix(0.0109146, 0.115615, -0.115615, 0.0109146, 12.958663, 10.998489)" fill="none" stroke-linejoin="miter" d="M 7.513826 7.514578 L 141.20923 7.4998 " stroke="#fcfcfc" stroke-width="15" stroke-opacity="1" stroke-miterlimit="4"/></g><g clip-path="url(#4269b4539b)"><path stroke-linecap="round" transform="matrix(-0.0200179, 0.114391, -0.114391, -0.0200179, 16.722563, 15.475259)" fill="none" stroke-linejoin="miter" d="M 7.504058 7.496275 L 106.089007 7.489238 " stroke="#fcfcfc" stroke-width="15" stroke-opacity="1" stroke-miterlimit="4"/></g><g clip-path="url(#9cbc12e26f)"><g clip-path="url(#d2d38af286)"><path stroke-linecap="butt" transform="matrix(0.116129, 0, 0, 0.116129, -5.843183, -6.452735)" fill="none" stroke-linejoin="miter" d="M 182.77941 -0.00336152 C 81.834314 -0.00336152 -0.00487951 81.835832 -0.00487951 182.747291 C -0.00487951 283.692387 81.834314 365.531581 182.77941 365.531581 C 283.690869 365.531581 365.530063 283.692387 365.530063 182.747291 C 365.530063 81.835832 283.690869 -0.00336152 182.77941 -0.00336152 Z M 182.77941 -0.00336152 " stroke="#ffdf2b" stroke-width="8" stroke-opacity="1" stroke-miterlimit="4"/></g></g><g clip-path="url(#d0f7f755bd)"><g clip-path="url(#a4a06e2541)"><path stroke-linecap="butt" transform="matrix(0.116129, 0, 0, 0.116129, -9.363596, -10.279264)" fill="none" stroke-linejoin="miter" d="M 214.136828 -0.0171035 C 95.868598 -0.0171035 0.00271159 95.88242 0.00271159 214.15065 C 0.00271159 332.41888 95.868598 428.284766 214.136828 428.284766 C 332.405058 428.284766 428.304581 332.41888 428.304581 214.15065 C 428.304581 95.88242 332.405058 -0.0171035 214.136828 -0.0171035 Z M 214.136828 -0.0171035 " stroke="#fcfcfc" stroke-width="34" stroke-opacity="1" stroke-miterlimit="4"/></g></g></svg>