<svg xmlns="http://www.w3.org/2000/svg" xmlns:xlink="http://www.w3.org/1999/xlink" width="450" zoomAndPan="magnify" viewBox="0 0 337.5 74.999997" height="100" preserveAspectRatio="xMidYMid meet" version="1.0"><defs><clipPath id="fc75499c63"><path d="M 138.988281 8.40625 L 197.566406 8.40625 L 197.566406 66.988281 L 138.988281 66.988281 Z M 138.988281 8.40625 " clip-rule="nonzero"/></clipPath><clipPath id="f28c76b7e6"><path d="M 168.277344 8.40625 C 152.101562 8.40625 138.988281 21.519531 138.988281 37.695312 C 138.988281 53.875 152.101562 66.988281 168.277344 66.988281 C 184.457031 66.988281 197.566406 53.875 197.566406 37.695312 C 197.566406 21.519531 184.457031 8.40625 168.277344 8.40625 Z M 168.277344 8.40625 " clip-rule="nonzero"/></clipPath><clipPath id="a7ce9b29ad"><path d="M 134.128906 3.125 L 202.722656 3.125 L 202.722656 71.71875 L 134.128906 71.71875 Z M 134.128906 3.125 " clip-rule="nonzero"/></clipPath><clipPath id="0abaeab427"><path d="M 168.449219 3.125 C 149.496094 3.125 134.128906 18.492188 134.128906 37.445312 C 134.128906 56.402344 149.496094 71.765625 168.449219 71.765625 C 187.402344 71.765625 202.769531 56.402344 202.769531 37.445312 C 202.769531 18.492188 187.402344 3.125 168.449219 3.125 Z M 168.449219 3.125 " clip-rule="nonzero"/></clipPath></defs><path stroke-linecap="round" transform="matrix(-0.160263, 0, 0, -0.160263, 186.380079, 32.440103)" fill="none" stroke-linejoin="miter" d="M 7.490156 7.499083 L 37.689622 7.499083 " stroke="#ffdf2b" stroke-width="15" stroke-opacity="1" stroke-miterlimit="4"/><path stroke-linecap="round" transform="matrix(0.080417, -0.138626, 0.138626, 0.080417, 176.118611, 35.968259)" fill="none" stroke-linejoin="miter" d="M 7.503265 7.500156 L 37.678729 7.494114 " stroke="#ffdf2b" stroke-width="15" stroke-opacity="1" stroke-miterlimit="4"/><path stroke-linecap="round" transform="matrix(-0.0260122, -0.158137, 0.158137, -0.0260122, 176.680938, 36.753438)" fill="none" stroke-linejoin="miter" d="M 7.507527 7.501222 L 51.280846 7.488677 " stroke="#ffdf2b" stroke-width="15" stroke-opacity="1" stroke-miterlimit="4"/><path stroke-linecap="round" transform="matrix(0.0419975, -0.154662, 0.154662, 0.0419975, 171.479061, 42.222591)" fill="none" stroke-linejoin="miter" d="M 7.490739 7.496815 L 90.914219 7.49893 " stroke="#ffdf2b" stroke-width="15" stroke-opacity="1" stroke-miterlimit="4"/><path stroke-linecap="round" transform="matrix(-0.0150625, -0.159553, 0.159553, -0.0150625, 171.879759, 42.553068)" fill="none" stroke-linejoin="miter" d="M 7.507022 7.509468 L 142.137936 7.488367 " stroke="#ffdf2b" stroke-width="15" stroke-opacity="1" stroke-miterlimit="4"/><path stroke-linecap="round" transform="matrix(0.0276254, -0.157864, 0.157864, 0.0276254, 166.653002, 36.338462)" fill="none" stroke-linejoin="miter" d="M 7.488842 7.494343 L 106.81549 7.507969 " stroke="#ffdf2b" stroke-width="15" stroke-opacity="1" stroke-miterlimit="4"/><path stroke-linecap="round" transform="matrix(0.160263, 0, 0, 0.160263, 150.517381, 42.533012)" fill="none" stroke-linejoin="miter" d="M 7.496255 7.496216 L 37.403231 7.496216 " stroke="#fcfcfc" stroke-width="15" stroke-opacity="1" stroke-miterlimit="4"/><path stroke-linecap="round" transform="matrix(-0.0804169, 0.138626, -0.138626, -0.0804169, 160.721672, 39.038392)" fill="none" stroke-linejoin="miter" d="M 7.510912 7.498892 L 37.40216 7.488656 " stroke="#fcfcfc" stroke-width="15" stroke-opacity="1" stroke-miterlimit="4"/><path stroke-linecap="round" transform="matrix(0.0260122, 0.158137, -0.158137, 0.0260122, 160.1641, 38.251984)" fill="none" stroke-linejoin="miter" d="M 7.49689 7.507616 L 50.897578 7.507881 " stroke="#fcfcfc" stroke-width="15" stroke-opacity="1" stroke-miterlimit="4"/><path stroke-linecap="round" transform="matrix(-0.0419975, 0.154662, -0.154662, -0.0419975, 165.333725, 32.822008)" fill="none" stroke-linejoin="miter" d="M 7.504915 7.494818 L 90.295627 7.49196 " stroke="#fcfcfc" stroke-width="15" stroke-opacity="1" stroke-miterlimit="4"/><path stroke-linecap="round" transform="matrix(0.0150625, 0.159553, -0.159553, 0.0150625, 164.934942, 32.490496)" fill="none" stroke-linejoin="miter" d="M 7.504321 7.498526 L 141.203958 7.487439 " stroke="#fcfcfc" stroke-width="15" stroke-opacity="1" stroke-miterlimit="4"/><path stroke-linecap="round" transform="matrix(-0.0276254, 0.157864, -0.157864, -0.0276254, 170.129273, 38.668609)" fill="none" stroke-linejoin="miter" d="M 7.494501 7.499844 L 106.099672 7.491259 " stroke="#fcfcfc" stroke-width="15" stroke-opacity="1" stroke-miterlimit="4"/><g clip-path="url(#fc75499c63)"><g clip-path="url(#f28c76b7e6)"><path stroke-linecap="butt" transform="matrix(0.160263, 0, 0, 0.160263, 138.987671, 8.407128)" fill="none" stroke-linejoin="miter" d="M 182.760537 -0.00548113 C 81.827538 -0.00548113 0.0038057 81.818251 0.0038057 182.75125 C 0.0038057 283.708623 81.827538 365.532355 182.760537 365.532355 C 283.71791 365.532355 365.517268 283.708623 365.517268 182.75125 C 365.517268 81.818251 283.71791 -0.00548113 182.760537 -0.00548113 Z M 182.760537 -0.00548113 " stroke="#ffdf2b" stroke-width="8" stroke-opacity="1" stroke-miterlimit="4"/></g></g><g clip-path="url(#a7ce9b29ad)"><g clip-path="url(#0abaeab427)"><path stroke-linecap="butt" transform="matrix(0.160263, 0, 0, 0.160263, 134.129361, 3.126371)" fill="none" stroke-linejoin="miter" d="M 214.147688 -0.00855337 C 95.88473 -0.00855337 -0.00283777 95.879014 -0.00283777 214.141972 C -0.00283777 332.429304 95.88473 428.292498 214.147688 428.292498 C 332.410646 428.292498 428.298213 332.429304 428.298213 214.141972 C 428.298213 95.879014 332.410646 -0.00855337 214.147688 -0.00855337 Z M 214.147688 -0.00855337 " stroke="#fcfcfc" stroke-width="34" stroke-opacity="1" stroke-miterlimit="4"/></g></g></svg>