<svg xmlns="http://www.w3.org/2000/svg" xmlns:xlink="http://www.w3.org/1999/xlink" width="650" zoomAndPan="magnify" viewBox="0 0 487.5 149.999998" height="200" preserveAspectRatio="xMidYMid meet" version="1.0"><defs><clipPath id="618b8275ea"><path d="M 133 75 L 486.476562 75 L 486.476562 131.800781 L 133 131.800781 Z M 133 75 " clip-rule="nonzero"/></clipPath><clipPath id="786443e62a"><path d="M 19 2.710938 L 102 2.710938 L 102 121 L 19 121 Z M 19 2.710938 " clip-rule="nonzero"/></clipPath><clipPath id="ebecfccab2"><path d="M 11 2.710938 L 96 2.710938 L 96 105 L 11 105 Z M 11 2.710938 " clip-rule="nonzero"/></clipPath><clipPath id="247cc182d2"><path d="M 0.0273438 86 L 20.976562 86 L 20.976562 93.84375 L 0.0273438 93.84375 Z M 0.0273438 86 " clip-rule="nonzero"/></clipPath><clipPath id="743f4e9b89"><path d="M 0.0273438 39 L 62.933594 39 L 62.933594 127.804688 L 0.0273438 127.804688 Z M 0.0273438 39 " clip-rule="nonzero"/></clipPath><clipPath id="82fabde029"><path d="M 0.0273438 40 L 65.933594 40 L 65.933594 135.796875 L 0.0273438 135.796875 Z M 0.0273438 40 " clip-rule="nonzero"/></clipPath><clipPath id="dd447d8a40"><path d="M 0.0273438 23 L 75.921875 23 L 75.921875 135.796875 L 0.0273438 135.796875 Z M 0.0273438 23 " clip-rule="nonzero"/></clipPath><clipPath id="fc717323f9"><path d="M 0.0273438 23 L 81.914062 23 L 81.914062 147.3125 L 0.0273438 147.3125 Z M 0.0273438 23 " clip-rule="nonzero"/></clipPath><clipPath id="b57f175e2e"><path d="M 5 40 L 90 40 L 90 147.3125 L 5 147.3125 Z M 5 40 " clip-rule="nonzero"/></clipPath></defs><g clip-path="url(#618b8275ea)"><path stroke-linecap="butt" transform="matrix(0.354606, 0, 0, 0.354578, 139.0454, 80.571017)" fill="none" stroke-linejoin="miter" d="M 43.835773 73.776255 C 43.240923 73.776255 42.734199 73.974554 42.326617 74.382169 C 41.930051 74.76775 41.742783 75.230448 41.742783 75.770262 L 41.742783 109.172626 C 41.742783 110.582752 41.401295 111.574247 40.685272 112.158127 C 39.980265 112.719974 38.878692 112.99539 37.391567 112.99539 L 15.349079 112.99539 C 14.016175 112.99539 13.079837 112.742008 12.540066 112.224227 C 12.022327 111.684413 11.768965 110.847151 11.768965 109.71244 L 11.768965 18.076271 C 11.768965 17.106809 11.978264 16.368696 12.407878 15.850916 C 12.859523 15.311102 13.48742 15.046703 14.280553 15.046703 L 39.363384 15.046703 C 40.079407 15.046703 40.641209 15.289069 41.070823 15.784816 C 41.522468 16.25853 41.742783 16.94156 41.742783 17.822889 L 41.742783 48.43805 C 41.742783 50.211725 42.535916 51.093054 44.133198 51.093054 L 66.307875 51.093054 C 67.872109 51.093054 68.665242 50.211725 68.665242 48.43805 L 68.665242 17.822889 C 68.665242 16.94156 68.874541 16.25853 69.304155 15.784816 C 69.7558 15.289069 70.339634 15.046703 71.044641 15.046703 L 96.116457 15.046703 C 96.90959 15.046703 97.526471 15.311102 97.956085 15.850916 C 98.40773 16.368696 98.63906 17.106809 98.63906 18.076271 L 98.63906 109.71244 C 98.63906 110.847151 98.363667 111.684413 97.823896 112.224227 C 97.306156 112.742008 96.39185 112.99539 95.080978 112.99539 L 73.049505 112.99539 C 71.540349 112.99539 70.438776 112.719974 69.722753 112.158127 C 69.017746 111.574247 68.665242 110.582752 68.665242 109.172626 L 68.665242 75.770262 C 68.665242 75.230448 68.466959 74.76775 68.081408 74.382169 C 67.695858 73.974554 67.189134 73.776255 66.561237 73.776255 Z M 157.143635 114.317383 C 147.537913 114.317383 139.132907 112.27931 131.961662 108.203164 C 124.790418 104.093968 119.260519 98.288214 115.405011 90.763869 C 111.527472 83.239524 109.599718 74.415219 109.599718 64.290953 C 109.599718 54.177705 111.549503 45.309333 115.471105 37.707872 C 119.392707 30.084377 124.944639 24.179473 132.093851 20.015195 C 139.265096 15.817866 147.626039 13.72471 157.143635 13.72471 C 166.551074 13.72471 174.812876 15.817866 181.918026 20.015195 C 189.056223 24.179473 194.575107 30.084377 198.496709 37.707872 C 202.418311 45.309333 204.390128 54.177705 204.390128 64.290953 C 204.390128 74.327086 202.440343 83.129358 198.562804 90.697769 C 194.685264 98.266181 189.188412 104.093968 182.050215 108.203164 C 174.945065 112.27931 166.6392 114.317383 157.143635 114.317383 Z M 157.143635 93.727337 C 160.999143 93.727337 164.072533 92.779909 166.352791 90.896068 C 168.65508 89.001211 170.329472 85.94961 171.375967 81.730248 C 172.433477 77.49987 172.962233 71.815299 172.962233 64.687551 C 172.962233 53.77009 171.72847 45.93728 169.249929 41.189121 C 166.804436 36.440961 162.761661 34.061373 157.143635 34.061373 C 151.393421 34.061373 147.284552 36.440961 144.761948 41.189121 C 142.272392 45.93728 141.016598 53.77009 141.016598 64.687551 C 141.016598 71.815299 141.545353 77.49987 142.602864 81.730248 C 143.649359 85.94961 145.345782 89.001211 147.670102 90.896068 C 149.994423 92.779909 153.166955 93.727337 157.143635 93.727337 Z M 218.754648 112.99539 C 217.708153 112.99539 216.859941 112.675908 216.24306 112.025928 C 215.637195 111.364931 215.33977 110.461569 215.33977 109.293808 L 215.33977 18.076271 C 215.33977 17.029693 215.549069 16.25853 215.978682 15.784816 C 216.430328 15.289069 217.14635 15.046703 218.115735 15.046703 L 255.07353 15.046703 C 256.219167 15.046703 257.023315 15.200936 257.496992 15.498384 C 257.9927 15.795833 258.422314 16.445813 258.785833 17.437308 L 272.522456 59.399578 C 272.775818 60.115658 273.084259 60.468189 273.425747 60.468189 C 273.70114 60.468189 273.976533 60.115658 274.229895 59.399578 L 286.501426 18.8915 C 287.195417 16.32463 288.374101 15.046703 290.048493 15.046703 L 328.207003 15.046703 C 329.804285 15.046703 330.597418 15.972098 330.597418 17.822889 L 330.597418 109.172626 C 330.597418 110.582752 330.266945 111.574247 329.594986 112.158127 C 328.934041 112.719974 327.865515 112.99539 326.378391 112.99539 L 304.038478 112.99539 C 302.727605 112.99539 301.824315 112.742008 301.328606 112.224227 C 300.85493 111.684413 300.623599 110.847151 300.623599 109.71244 L 300.623599 50.410024 C 300.623599 49.726994 300.447348 49.374462 300.10586 49.374462 C 299.654215 49.374462 299.301711 49.77106 299.037333 50.575273 L 280.024173 110.615802 C 279.407291 112.202194 278.349781 112.99539 276.862656 112.99539 L 263.015876 112.99539 C 261.418594 112.99539 260.361084 112.202194 259.821312 110.615802 L 240.841199 51.588801 C 240.55479 50.718489 240.246349 50.277824 239.904861 50.277824 C 239.453216 50.277824 239.221886 50.762555 239.221886 51.721 L 239.221886 110.109038 C 239.221886 111.232732 239.05665 112.003895 238.704146 112.411509 C 238.362658 112.808107 237.569525 112.99539 236.324747 112.99539 Z M 344.323025 18.076271 C 344.323025 16.060231 345.160221 15.046703 346.834613 15.046703 L 418.128457 15.046703 C 419.703708 15.046703 420.485825 15.972098 420.485825 17.822889 L 420.353636 33.124961 C 420.353636 35.515566 419.219015 36.70536 416.938758 36.70536 L 377.32617 36.70536 C 375.299275 36.70536 374.296843 37.531606 374.296843 39.195114 L 374.296843 50.410024 C 374.296843 51.291353 374.506142 51.974383 374.935756 52.47013 C 375.387401 52.954861 375.971235 53.208243 376.676242 53.208243 L 400.437185 53.208243 C 402.287829 53.208243 403.202135 54.078555 403.202135 55.81918 L 403.202135 72.189863 C 403.202135 73.699139 402.420018 74.448269 400.822736 74.448269 L 376.389833 74.448269 C 375.783967 74.448269 375.277244 74.635551 374.869661 74.999099 C 374.484111 75.340614 374.296843 75.770262 374.296843 76.288043 L 374.296843 89.507975 C 374.296843 90.213039 374.395985 90.697769 374.616299 90.962168 C 374.825598 91.204534 375.255212 91.336733 375.872093 91.336733 L 418.778386 91.336733 C 420.70614 91.336733 421.675524 92.173995 421.675524 93.84852 L 421.675524 110.109038 C 421.675524 110.97935 421.411147 111.684413 420.871376 112.224227 C 420.353636 112.742008 419.571519 112.99539 418.514008 112.99539 L 347.903139 112.99539 C 346.570235 112.99539 345.633897 112.742008 345.094126 112.224227 C 344.576387 111.684413 344.323025 110.847151 344.323025 109.71244 Z M 517.644618 41.32132 C 515.540613 39.018848 513.271371 37.25619 510.836893 36.033347 C 508.446478 34.799486 504.943474 34.193573 500.360928 34.193573 C 495.789398 34.193573 492.396551 34.854569 490.182388 36.187579 C 487.990256 37.498556 486.899698 39.084948 486.899698 40.935738 C 486.899698 44.086489 489.708711 46.322861 495.337752 47.633838 L 517.259067 53.340442 C 525.267508 55.356482 531.293115 58.903831 535.33589 63.971472 C 539.400697 69.028096 541.427593 75.076215 541.427593 82.11583 C 541.427593 88.637663 539.720153 94.300201 536.272228 99.14751 C 532.835318 103.972785 527.933316 107.718433 521.544189 110.36242 C 515.166077 112.99539 507.708424 114.317383 499.171229 114.317383 C 489.477381 114.317383 480.653776 112.719974 472.678383 109.525157 C 464.736037 106.29729 459.217153 102.077928 456.143763 96.889105 C 455.692118 96.007776 455.471803 95.346779 455.471803 94.917131 C 455.471803 94.035803 455.94548 93.242607 456.914864 92.526527 L 470.519299 83.151391 C 471.488683 82.545477 472.369942 82.248029 473.163075 82.248029 C 474.13246 82.248029 474.925593 82.63361 475.55349 83.404773 C 478.527739 87.304653 481.568082 90.047789 484.641472 91.623165 C 487.725879 93.19854 491.823732 93.980719 496.924018 93.980719 C 501.859068 93.980719 505.758639 93.308706 508.611714 91.953663 C 511.475806 90.587603 512.907852 88.71478 512.907852 86.346208 C 512.907852 84.671683 512.191829 83.217491 510.770799 81.98363 C 509.3718 80.74977 507.322873 79.813358 504.590971 79.196428 L 484.509284 74.316069 C 476.611001 72.388162 470.321015 68.763697 465.661359 63.420641 C 460.990687 58.099618 458.655351 51.963366 458.655351 45.022901 C 458.655351 39.294263 460.329743 34.017307 463.656495 29.236098 C 467.005279 24.432856 471.753061 20.665175 477.899842 17.888989 C 484.068654 15.112803 491.206851 13.72471 499.303417 13.72471 C 507.234747 13.72471 514.582243 15.02467 521.345905 17.62459 C 528.120583 20.213494 533.000554 23.650676 536.018866 27.969188 C 536.613716 28.7734 536.922156 29.52253 536.922156 30.238609 C 536.922156 30.833506 536.613716 31.40637 536.018866 31.935167 L 521.610283 42.378914 C 521.169654 42.720429 520.695977 42.896695 520.156206 42.896695 C 519.55034 42.896695 518.72416 42.367898 517.644618 41.32132 Z M 548.686963 18.076271 C 548.686963 17.194942 548.973372 16.478863 549.535174 15.917015 C 550.107993 15.333135 550.934173 15.046703 551.969652 15.046703 L 630.908418 15.046703 C 631.98796 15.046703 632.803124 15.333135 633.364927 15.917015 C 633.948761 16.478863 634.23517 17.194942 634.23517 18.076271 L 634.23517 33.774941 C 634.23517 35.449466 633.265785 36.286729 631.327016 36.286729 L 607.962639 36.286729 C 606.905129 36.286729 606.376373 36.727393 606.376373 37.608722 L 606.376373 110.109038 C 606.376373 111.056466 606.156058 111.794579 605.704413 112.290327 C 605.2748 112.764041 604.657918 112.99539 603.875801 112.99539 L 578.79297 112.99539 C 577.206704 112.99539 576.402555 112.114061 576.402555 110.36242 L 576.402555 38.159553 C 576.402555 36.914676 575.917863 36.286729 574.959494 36.286729 L 551.71629 36.286729 C 549.70041 36.286729 548.686963 35.449466 548.686963 33.774941 Z M 728.232447 74.316069 C 728.232447 88.769863 724.575223 99.04836 717.271789 105.162579 C 709.979372 111.265782 699.536454 114.317383 685.976083 114.317383 C 670.74132 114.317383 659.89082 110.803084 653.424582 103.774486 C 646.94733 96.734872 643.730735 86.037743 643.730735 71.672083 L 643.730735 18.076271 C 643.730735 17.106809 643.940034 16.368696 644.369647 15.850916 C 644.821292 15.311102 645.449189 15.046703 646.242322 15.046703 L 671.314138 15.046703 C 672.900404 15.046703 673.704553 15.972098 673.704553 17.822889 L 673.704553 74.83385 C 673.704553 81.344667 674.949331 86.059776 677.438887 88.990195 C 679.950475 91.887563 683.552621 93.330739 688.234309 93.330739 C 692.805839 93.330739 696.507127 91.887563 699.327155 88.990195 C 702.136168 86.059776 703.546182 81.212468 703.546182 74.448269 L 703.546182 18.076271 C 703.546182 16.060231 704.383378 15.046703 706.05777 15.046703 L 725.853048 15.046703 C 727.439314 15.046703 728.232447 15.972098 728.232447 17.822889 Z M 760.045893 15.046703 C 770.510842 15.046703 777.010127 15.09077 779.576793 15.178902 C 796.73931 15.795833 809.715848 20.444842 818.506405 29.103898 C 827.307978 37.762955 831.725289 49.308363 831.725289 63.751139 C 831.725289 73.43474 829.73144 81.972614 825.765775 89.375776 C 821.811126 96.767922 815.917707 102.551643 808.063487 106.748971 C 800.242314 110.91325 790.702687 112.99539 779.444605 112.99539 L 744.723004 112.99539 C 743.3901 112.99539 742.409699 112.697941 741.803834 112.092028 C 741.197968 111.475097 740.900544 110.461569 740.900544 109.040426 L 740.900544 18.34067 C 740.900544 17.106809 741.153906 16.25853 741.671645 15.784816 C 742.2004 15.289069 743.136738 15.046703 744.469642 15.046703 Z M 772.19625 35.768948 C 771.744605 35.768948 771.414133 35.901147 771.193818 36.154529 C 770.984519 36.418928 770.874362 36.903659 770.874362 37.608722 L 770.874362 90.279138 C 770.874362 91.061318 770.995535 91.601132 771.259913 91.887563 C 771.513274 92.140945 771.997967 92.273145 772.71399 92.273145 L 773.650327 92.273145 C 782.352759 92.273145 788.962201 90.01474 793.500684 85.475896 C 798.028151 80.948069 800.297393 73.56694 800.297393 63.365558 C 800.297393 54.552269 798.578938 47.997386 795.131013 43.700908 C 791.72715 39.382396 786.71499 36.914676 780.116564 36.286729 Z M 870.269349 15.046703 C 871.855615 15.046703 872.648748 15.972098 872.648748 17.822889 L 872.648748 109.172626 C 872.648748 110.582752 872.296245 111.574247 871.591238 112.158127 C 870.875215 112.719974 869.784657 112.99539 868.308548 112.99539 L 846.255045 112.99539 C 844.92214 112.99539 843.985803 112.742008 843.457048 112.224227 C 842.939308 111.684413 842.67493 110.847151 842.67493 109.71244 L 842.67493 18.076271 C 842.67493 17.106809 842.895245 16.368696 843.324859 15.850916 C 843.776504 15.311102 844.404401 15.046703 845.197534 15.046703 Z M 927.308831 13.59251 C 935.581649 13.59251 943.017271 15.795833 949.615697 20.213494 C 956.203107 24.587088 961.380504 30.646224 965.114838 38.357852 C 968.849173 46.047446 970.721848 54.695485 970.721848 64.290953 C 970.721848 73.875405 968.871204 82.457345 965.180932 90.058806 C 961.490661 97.616201 956.357328 103.510088 949.802965 107.751483 C 943.259617 111.948812 935.746885 114.064001 927.308831 114.064001 C 918.870778 114.064001 911.313983 111.948812 904.649462 107.751483 C 898.017989 103.510088 892.840593 97.616201 889.150321 90.058806 C 885.449034 82.457345 883.59839 73.875405 883.59839 64.290953 C 883.59839 54.695485 885.471065 46.047446 889.216416 38.357852 C 892.95075 30.646224 898.139162 24.587088 904.781651 20.213494 C 911.446171 15.795833 918.947888 13.59251 927.308831 13.59251 Z M 927.176643 93.462939 C 930.426285 93.462939 933.003967 92.51551 934.942737 90.63167 C 936.881506 88.747829 938.269489 85.707245 939.106685 81.531949 C 939.943881 77.356654 940.362479 71.639033 940.362479 64.423153 C 940.362479 53.417559 939.349031 45.595765 937.333151 40.935738 C 935.306256 36.264696 931.935441 33.929174 927.176643 33.929174 C 922.406829 33.929174 919.013982 36.264696 916.998102 40.935738 C 914.971207 45.595765 913.957759 53.417559 913.957759 64.423153 C 913.957759 71.539883 914.398389 77.213438 915.290663 81.443816 C 916.171922 85.674195 917.559905 88.747829 919.443596 90.63167 C 921.338302 92.51551 923.915985 93.462939 927.176643 93.462939 Z M 927.176643 93.462939 " stroke="#ffdf2b" stroke-width="4.951" stroke-opacity="1" stroke-miterlimit="4"/></g><path stroke-linecap="butt" transform="matrix(0, 0.748323, -0.748382, 0, 114.08899, 12.109664)" fill="none" stroke-linejoin="miter" d="M -0.000386458 3.501204 L 160.295525 3.501204 " stroke="#ffdf2b" stroke-width="7" stroke-opacity="1" stroke-miterlimit="4"/><path fill="#fcfcfc" d="M 187.496094 64.195312 L 142.292969 64.195312 L 142.292969 25.472656 L 158.542969 25.472656 L 158.542969 54.613281 L 187.496094 54.613281 Z M 187.496094 64.195312 " fill-opacity="1" fill-rule="nonzero"/><path fill="#fcfcfc" d="M 254.761719 64.195312 L 238.292969 64.195312 L 234.65625 57.859375 L 210.230469 57.859375 L 206.589844 64.195312 L 190.125 64.195312 L 214.894531 25.503906 L 229.988281 25.503906 Z M 229.179688 48.277344 L 222.449219 36.539062 L 215.707031 48.277344 Z M 229.179688 48.277344 " fill-opacity="1" fill-rule="nonzero"/><path fill="#fcfcfc" d="M 288.398438 64.195312 L 260.632812 64.195312 L 260.632812 25.503906 L 288.992188 25.503906 C 294.027344 25.503906 298.175781 25.734375 301.433594 26.191406 C 304.6875 26.652344 307.199219 27.371094 308.957031 28.34375 C 310.726562 29.324219 311.921875 30.574219 312.546875 32.089844 C 313.179688 33.601562 313.5 35.40625 313.5 37.507812 C 313.445312 39.160156 312.988281 40.535156 312.125 41.628906 C 311.269531 42.710938 310.273438 43.515625 309.128906 44.046875 C 307.992188 44.578125 306.996094 44.84375 306.132812 44.84375 C 306.976562 44.84375 307.960938 45.011719 309.097656 45.34375 C 310.230469 45.675781 311.332031 46.160156 312.40625 46.792969 C 313.476562 47.417969 314.367188 48.183594 315.074219 49.085938 C 315.78125 49.984375 316.136719 51.007812 316.136719 52.164062 C 316.136719 53.671875 315.957031 55.058594 315.605469 56.3125 C 315.261719 57.574219 314.5625 58.695312 313.5 59.667969 C 312.445312 60.636719 310.898438 61.460938 308.847656 62.136719 C 306.796875 62.816406 304.109375 63.328125 300.792969 63.679688 C 297.472656 64.023438 293.339844 64.195312 288.398438 64.195312 Z M 287.480469 41.535156 C 289.851562 41.535156 291.6875 41.421875 292.988281 41.191406 C 294.300781 40.953125 295.207031 40.59375 295.707031 40.113281 C 296.210938 39.636719 296.46875 39.027344 296.46875 38.289062 C 296.46875 37.539062 296.210938 36.925781 295.707031 36.445312 C 295.207031 35.96875 294.300781 35.617188 292.988281 35.398438 C 291.6875 35.171875 289.851562 35.054688 287.480469 35.054688 L 276.878906 35.054688 L 276.878906 41.535156 Z M 287.480469 54.644531 C 289.902344 54.644531 291.871094 54.582031 293.378906 54.457031 C 294.898438 54.332031 296.003906 54.046875 296.703125 53.597656 C 297.410156 53.140625 297.765625 52.410156 297.765625 51.398438 C 297.765625 50.398438 297.410156 49.671875 296.703125 49.210938 C 296.003906 48.746094 294.898438 48.457031 293.378906 48.339844 C 291.871094 48.226562 289.902344 48.167969 287.480469 48.167969 L 276.878906 48.167969 L 276.878906 54.644531 Z M 287.480469 54.644531 " fill-opacity="1" fill-rule="nonzero"/><path stroke-linecap="round" transform="matrix(-0.748382, 0, 0, -0.748323, 101.04636, 57.961025)" fill="none" stroke-linejoin="miter" d="M 4.498599 4.499761 L 22.756727 4.499761 " stroke="#ffdf2b" stroke-width="9" stroke-opacity="1" stroke-miterlimit="4"/><path stroke-linecap="round" transform="matrix(0.375525, -0.647295, 0.647346, 0.375495, 72.155992, 67.925993)" fill="none" stroke-linejoin="miter" d="M 4.498997 4.498884 L 22.754219 4.49916 " stroke="#ffdf2b" stroke-width="9" stroke-opacity="1" stroke-miterlimit="4"/><path stroke-linecap="round" transform="matrix(-0.121475, -0.738404, 0.738463, -0.121466, 73.744363, 70.12755)" fill="none" stroke-linejoin="miter" d="M 4.500702 4.49839 L 30.956011 4.50209 " stroke="#ffdf2b" stroke-width="9" stroke-opacity="1" stroke-miterlimit="4"/><path stroke-linecap="round" transform="matrix(0.196119, -0.722172, 0.722229, 0.196103, 59.084398, 85.532524)" fill="none" stroke-linejoin="miter" d="M 4.495707 4.49823 L 54.871226 4.502695 " stroke="#ffdf2b" stroke-width="9" stroke-opacity="1" stroke-miterlimit="4"/><g clip-path="url(#786443e62a)"><path stroke-linecap="round" transform="matrix(-0.0703379, -0.745017, 0.745076, -0.0703323, 60.218234, 86.461528)" fill="none" stroke-linejoin="miter" d="M 4.499401 4.499074 L 85.768371 4.501009 " stroke="#ffdf2b" stroke-width="9" stroke-opacity="1" stroke-miterlimit="4"/></g><g clip-path="url(#ebecfccab2)"><path stroke-linecap="round" transform="matrix(0.128998, -0.737125, 0.737184, 0.128987, 45.494338, 68.960856)" fill="none" stroke-linejoin="miter" d="M 4.496584 4.498522 L 64.458957 4.502963 " stroke="#ffdf2b" stroke-width="9" stroke-opacity="1" stroke-miterlimit="4"/></g><g clip-path="url(#247cc182d2)"><path stroke-linecap="round" transform="matrix(0.748383, 0, 0, 0.748323, 0.0249744, 86.425558)" fill="none" stroke-linejoin="miter" d="M 4.502453 4.499943 L 22.583113 4.499943 " stroke="#fcfcfc" stroke-width="9" stroke-opacity="1" stroke-miterlimit="4"/></g><g clip-path="url(#743f4e9b89)"><path stroke-linecap="round" transform="matrix(-0.375525, 0.647295, -0.647346, -0.375495, 28.75351, 76.555443)" fill="none" stroke-linejoin="miter" d="M 4.501955 4.496158 L 22.58433 4.500155 " stroke="#fcfcfc" stroke-width="9" stroke-opacity="1" stroke-miterlimit="4"/></g><g clip-path="url(#82fabde029)"><path stroke-linecap="round" transform="matrix(0.121475, 0.738404, -0.738463, 0.121466, 27.177126, 74.356888)" fill="none" stroke-linejoin="miter" d="M 4.500703 4.497868 L 30.733751 4.502034 " stroke="#fcfcfc" stroke-width="9" stroke-opacity="1" stroke-miterlimit="4"/></g><g clip-path="url(#dd447d8a40)"><path stroke-linecap="round" transform="matrix(-0.196119, 0.722172, -0.722229, -0.196103, 41.740194, 59.05379)" fill="none" stroke-linejoin="miter" d="M 4.501757 4.502512 L 54.497292 4.501986 " stroke="#fcfcfc" stroke-width="9" stroke-opacity="1" stroke-miterlimit="4"/></g><g clip-path="url(#fc717323f9)"><path stroke-linecap="round" transform="matrix(0.0703379, 0.745017, -0.745076, 0.0703323, 40.621336, 58.120835)" fill="none" stroke-linejoin="miter" d="M 4.498994 4.498667 L 85.206994 4.500073 " stroke="#fcfcfc" stroke-width="9" stroke-opacity="1" stroke-miterlimit="4"/></g><g clip-path="url(#b57f175e2e)"><path stroke-linecap="round" transform="matrix(-0.128998, 0.737125, -0.737184, -0.128987, 55.248333, 75.520612)" fill="none" stroke-linejoin="miter" d="M 4.500522 4.498488 L 64.027768 4.499588 " stroke="#fcfcfc" stroke-width="9" stroke-opacity="1" stroke-miterlimit="4"/></g></svg>