<svg xmlns="http://www.w3.org/2000/svg" xmlns:xlink="http://www.w3.org/1999/xlink" width="650" zoomAndPan="magnify" viewBox="0 0 487.5 442.499987" height="590" preserveAspectRatio="xMidYMid meet" version="1.0"><defs><g/><clipPath id="a586c99016"><path d="M 133 222 L 486.976562 222 L 486.976562 279 L 133 279 Z M 133 222 " clip-rule="nonzero"/></clipPath><clipPath id="8cdb4e402e"><path d="M 0.0273438 233 L 21 233 L 21 241 L 0.0273438 241 Z M 0.0273438 233 " clip-rule="nonzero"/></clipPath><clipPath id="ce622e1e73"><path d="M 0.0273438 186 L 63 186 L 63 275 L 0.0273438 275 Z M 0.0273438 186 " clip-rule="nonzero"/></clipPath><clipPath id="b2e42b4e96"><path d="M 0.0273438 187 L 66 187 L 66 283 L 0.0273438 283 Z M 0.0273438 187 " clip-rule="nonzero"/></clipPath><clipPath id="a25a6536c6"><path d="M 0.0273438 170 L 76 170 L 76 283 L 0.0273438 283 Z M 0.0273438 170 " clip-rule="nonzero"/></clipPath><clipPath id="53e583d0f6"><path d="M 0.0273438 170 L 82 170 L 82 308 L 0.0273438 308 Z M 0.0273438 170 " clip-rule="nonzero"/></clipPath></defs><g clip-path="url(#a586c99016)"><path stroke-linecap="butt" transform="matrix(0.354975, 0, 0, 0.354975, 139.188235, 227.712696)" fill="none" stroke-linejoin="miter" d="M 43.839101 73.778948 C 43.244868 73.778948 42.73867 73.977025 42.331511 74.384185 C 41.935356 74.769335 41.748282 75.231516 41.748282 75.770728 L 41.748282 109.168809 C 41.748282 110.577361 41.396144 111.578753 40.680864 112.161982 C 39.976588 112.723201 38.876157 112.998309 37.390575 112.998309 L 15.348942 112.998309 C 14.017421 112.998309 13.082054 112.74521 12.542843 112.228007 C 12.02564 111.688796 11.772541 110.852469 11.772541 109.70802 L 11.772541 18.075129 C 11.772541 17.10675 11.981623 16.369461 12.410791 15.852259 C 12.861968 15.313047 13.489214 15.048944 14.281524 15.048944 L 39.360347 15.048944 C 40.075627 15.048944 40.636847 15.291039 41.066015 15.786233 C 41.517192 16.259418 41.748282 16.941685 41.748282 17.82203 L 41.748282 48.436021 C 41.748282 50.207715 42.540593 51.08806 44.136218 51.08806 L 66.309903 51.08806 C 67.872515 51.08806 68.664825 50.207715 68.664825 48.436021 L 68.664825 17.82203 C 68.664825 16.941685 68.873907 16.259418 69.303075 15.786233 C 69.754252 15.291039 70.33748 15.048944 71.041756 15.048944 L 96.120579 15.048944 C 96.912889 15.048944 97.529131 15.313047 97.958299 15.852259 C 98.409476 16.369461 98.640566 17.10675 98.640566 18.075129 L 98.640566 109.70802 C 98.640566 110.852469 98.365458 111.688796 97.826247 112.228007 C 97.309045 112.74521 96.395687 112.998309 95.086174 112.998309 L 73.044541 112.998309 C 71.53695 112.998309 70.436519 112.723201 69.721239 112.161982 C 69.016963 111.578753 68.664825 110.577361 68.664825 109.168809 L 68.664825 75.770728 C 68.664825 75.231516 68.466747 74.769335 68.081597 74.384185 C 67.696446 73.977025 67.190248 73.778948 66.563002 73.778948 Z M 157.139479 114.318826 C 147.532716 114.318826 139.136428 112.283029 131.961617 108.20043 C 124.786807 104.095822 119.262643 98.285546 115.400131 90.758598 C 111.526613 83.242654 109.600859 74.417198 109.600859 64.293232 C 109.600859 54.180271 111.548622 45.310797 115.466156 37.706819 C 119.394695 30.080832 124.940868 24.182521 132.093669 20.011888 C 139.268479 15.819246 147.620751 13.728427 157.139479 13.728427 C 166.548165 13.728427 174.812402 15.819246 181.921186 20.011888 C 189.051979 24.182521 194.576143 30.080832 198.493677 37.706819 C 202.422216 45.310797 204.391987 54.180271 204.391987 64.293232 C 204.391987 74.329163 202.444224 83.132611 198.559703 90.692572 C 194.686186 98.263538 189.184031 104.095822 182.053238 108.20043 C 174.944453 112.283029 166.636199 114.318826 157.139479 114.318826 Z M 157.139479 93.729762 C 161.001992 93.729762 164.072195 92.783391 166.350087 90.89065 C 168.649988 88.997909 170.333647 85.949715 171.379057 81.735064 C 172.43547 77.498404 172.963677 71.82018 172.963677 64.689387 C 172.963677 53.773112 171.731195 45.938043 169.255225 41.184181 C 166.801264 36.441323 162.762682 34.064392 157.139479 34.064392 C 151.395229 34.064392 147.279617 36.441323 144.75963 41.184181 C 142.272656 45.938043 141.018165 53.773112 141.018165 64.689387 C 141.018165 71.82018 141.546372 77.498404 142.602785 81.735064 C 143.648195 85.949715 145.342859 88.997909 147.664768 90.89065 C 149.997682 92.783391 153.166923 93.729762 157.139479 93.729762 Z M 218.752612 112.998309 C 217.707203 112.998309 216.859871 112.679184 216.243629 112.02993 C 215.638392 111.369671 215.341276 110.456314 215.341276 109.289857 L 215.341276 18.075129 C 215.341276 17.02972 215.550358 16.259418 215.979526 15.786233 C 216.430703 15.291039 217.145983 15.048944 218.114362 15.048944 L 255.07784 15.048944 C 256.222289 15.048944 257.025603 15.203004 257.498789 15.500121 C 257.993982 15.797237 258.423151 16.446491 258.786293 17.436879 L 272.519672 59.396314 C 272.772771 60.111594 273.080892 60.463732 273.422025 60.463732 C 273.697133 60.463732 273.972241 60.111594 274.22534 59.396314 L 286.50615 18.889448 C 287.199422 16.325444 288.376883 15.048944 290.049538 15.048944 L 328.212486 15.048944 C 329.808111 15.048944 330.600421 15.973306 330.600421 17.82203 L 330.600421 109.168809 C 330.600421 110.577361 330.270292 111.578753 329.599029 112.161982 C 328.938771 112.723201 327.860348 112.998309 326.374766 112.998309 L 304.036016 112.998309 C 302.726504 112.998309 301.82415 112.74521 301.328956 112.228007 C 300.855771 111.688796 300.62468 110.852469 300.62468 109.70802 L 300.62468 50.405793 C 300.62468 49.723525 300.448611 49.371387 300.107478 49.371387 C 299.656301 49.371387 299.304163 49.767543 299.04006 50.570857 L 280.024612 110.610374 C 279.40837 112.205999 278.351956 112.998309 276.866375 112.998309 L 263.011948 112.998309 C 261.416323 112.998309 260.359909 112.205999 259.820698 110.610374 L 240.838263 51.594258 C 240.552151 50.713913 240.24403 50.273741 239.902896 50.273741 C 239.45172 50.273741 239.220629 50.757931 239.220629 51.72631 L 239.220629 110.104176 C 239.220629 111.23762 239.055565 112.007921 238.703427 112.415081 C 238.362293 112.811236 237.569983 112.998309 236.326496 112.998309 Z M 344.322796 18.075129 C 344.322796 16.06134 345.159124 15.048944 346.831779 15.048944 L 418.128705 15.048944 C 419.702321 15.048944 420.483627 15.973306 420.483627 17.82203 L 420.351576 33.129026 C 420.351576 35.516961 419.218132 36.705426 416.940239 36.705426 L 377.324723 36.705426 C 375.299929 36.705426 374.298537 37.53075 374.298537 39.192401 L 374.298537 50.405793 C 374.298537 51.286137 374.507619 51.979409 374.936787 52.474603 C 375.387964 52.958793 375.971192 53.211892 376.675468 53.211892 L 400.433774 53.211892 C 402.282498 53.211892 403.20686 54.081232 403.20686 55.819913 L 403.20686 72.194327 C 403.20686 73.701917 402.41455 74.45021 400.818925 74.45021 L 376.389356 74.45021 C 375.784119 74.45021 375.277921 74.637284 374.870761 75.000426 C 374.485611 75.34156 374.298537 75.770728 374.298537 76.28793 L 374.298537 89.504107 C 374.298537 90.208383 374.397576 90.692572 374.617662 90.956676 C 374.826744 91.209775 375.255912 91.341827 375.872154 91.341827 L 418.777959 91.341827 C 420.703713 91.341827 421.672093 92.178154 421.672093 93.850809 L 421.672093 110.104176 C 421.672093 110.98452 421.407989 111.688796 420.868778 112.228007 C 420.351576 112.74521 419.57027 112.998309 418.513856 112.998309 L 347.899197 112.998309 C 346.567675 112.998309 345.632309 112.74521 345.093098 112.228007 C 344.575895 111.688796 344.322796 110.852469 344.322796 109.70802 Z M 517.640682 41.316232 C 515.538859 39.016332 513.271971 37.255642 510.840019 36.034163 C 508.441079 34.801681 504.941708 34.196444 500.363915 34.196444 C 495.786122 34.196444 492.396795 34.856702 490.184928 36.188224 C 487.99507 37.497737 486.894639 39.082357 486.894639 40.931082 C 486.894639 44.089319 489.711743 46.323194 495.334945 47.632706 L 517.255531 53.343943 C 525.266669 55.357732 531.297031 58.90112 535.335613 63.974107 C 539.396204 69.025086 541.432001 75.077456 541.432001 82.120215 C 541.432001 88.634766 539.715329 94.301986 536.270979 99.143883 C 532.837635 103.974775 527.929712 107.71624 521.547212 110.357275 C 515.164712 112.998309 507.70379 114.318826 499.17545 114.318826 C 489.480652 114.318826 480.655196 112.723201 472.677071 109.520947 C 464.731959 106.296684 459.218799 102.082033 456.148597 96.887999 C 455.69742 96.007654 455.466329 95.347396 455.466329 94.918227 C 455.466329 94.037883 455.950519 93.245572 456.918898 92.530292 L 470.520226 83.15462 C 471.488605 82.549383 472.36895 82.252266 473.16126 82.252266 C 474.12964 82.252266 474.92195 82.637417 475.549196 83.407719 C 478.531364 87.303245 481.568553 90.043318 484.638756 91.627939 C 487.730967 93.201555 491.82457 93.982861 496.919566 93.982861 C 501.860501 93.982861 505.756027 93.311598 508.617148 91.958068 C 511.478268 90.582529 512.908829 88.711797 512.908829 86.34587 C 512.908829 84.673215 512.193549 83.220646 510.773993 81.988163 C 509.376445 80.744676 507.318639 79.80931 504.58957 79.193068 L 484.506704 74.318159 C 476.605609 72.392404 470.322148 68.760982 465.656321 63.423892 C 460.990493 58.097805 458.657579 51.968405 458.657579 45.024685 C 458.657579 39.291439 460.330235 34.020375 463.653536 29.2335 C 467.009851 24.43562 471.752709 20.661142 477.904118 17.888056 C 484.066532 15.11497 491.208329 13.728427 499.307501 13.728427 C 507.230605 13.728427 514.581484 15.026935 521.349135 17.623952 C 528.116786 20.209965 533.002699 23.654314 536.01788 27.968004 C 536.612113 28.771319 536.920234 29.519612 536.920234 30.234892 C 536.920234 30.829125 536.612113 31.401349 536.01788 31.94056 L 521.613238 42.38365 C 521.173066 42.724784 520.69988 42.900853 520.160669 42.900853 C 519.555432 42.900853 518.719105 42.372646 517.640682 41.316232 Z M 548.683841 18.075129 C 548.683841 17.194784 548.969953 16.479504 549.531173 15.918284 C 550.103397 15.335056 550.928721 15.048944 551.97413 15.048944 L 630.908047 15.048944 C 631.98647 15.048944 632.800789 15.335056 633.362009 15.918284 C 633.945237 16.479504 634.231349 17.194784 634.231349 18.075129 L 634.231349 33.77828 C 634.231349 35.450935 633.26297 36.287263 631.326211 36.287263 L 607.964061 36.287263 C 606.907647 36.287263 606.37944 36.727435 606.37944 37.60778 L 606.37944 110.104176 C 606.37944 111.061551 606.159354 111.798839 605.708177 112.294033 C 605.279009 112.767219 604.662767 112.998309 603.870457 112.998309 L 578.791634 112.998309 C 577.207013 112.998309 576.403699 112.117964 576.403699 110.357275 L 576.403699 38.157995 C 576.403699 36.914508 575.919509 36.287263 574.962134 36.287263 L 551.721031 36.287263 C 549.696238 36.287263 548.683841 35.450935 548.683841 33.77828 Z M 728.230167 74.318159 C 728.230167 88.766818 724.576736 99.044844 717.269874 105.16324 C 709.974016 111.270632 699.54193 114.318826 685.973616 114.318826 C 670.74365 114.318826 659.8934 110.808451 653.422866 103.776697 C 646.952332 96.733939 643.728069 86.037749 643.728069 71.677124 L 643.728069 18.075129 C 643.728069 17.10675 643.937151 16.369461 644.366319 15.852259 C 644.817495 15.313047 645.444741 15.048944 646.237052 15.048944 L 671.315875 15.048944 C 672.900495 15.048944 673.70381 15.973306 673.70381 17.82203 L 673.70381 74.835361 C 673.70381 81.349913 674.947297 86.059758 677.434271 88.986904 C 679.954258 91.892042 683.552667 93.333607 688.229499 93.333607 C 692.807292 93.333607 696.504741 91.892042 699.321844 88.986904 C 702.138947 86.059758 703.547499 81.217861 703.547499 74.45021 L 703.547499 18.075129 C 703.547499 16.06134 704.383827 15.048944 706.056482 15.048944 L 725.853236 15.048944 C 727.437857 15.048944 728.230167 15.973306 728.230167 17.82203 Z M 760.043628 15.048944 C 770.508727 15.048944 777.012274 15.092961 779.576278 15.180996 C 796.743002 15.797237 809.717084 20.441056 818.509528 29.101448 C 827.312976 37.76184 831.725705 49.305362 831.725705 63.754021 C 831.725705 73.437814 829.733924 81.977159 825.761368 89.372055 C 821.810821 96.766952 815.912511 102.555219 808.066438 106.747861 C 800.242373 110.918495 790.701636 112.998309 779.444227 112.998309 L 744.725628 112.998309 C 743.394106 112.998309 742.414723 112.701193 741.798481 112.095956 C 741.193244 111.479714 740.896128 110.456314 740.896128 109.036757 L 740.896128 18.339233 C 740.896128 17.10675 741.149227 16.259418 741.66643 15.786233 C 742.205641 15.291039 743.141007 15.048944 744.472529 15.048944 Z M 772.192386 35.77006 C 771.74121 35.77006 771.41108 35.902112 771.190994 36.155211 C 770.981912 36.419314 770.871869 36.903504 770.871869 37.60778 L 770.871869 90.274409 C 770.871869 91.066719 770.992917 91.60593 771.25702 91.892042 C 771.510119 92.145141 771.994309 92.277193 772.709589 92.277193 L 773.644955 92.277193 C 782.349365 92.277193 788.962955 90.010305 793.496731 85.476529 C 798.030507 80.942753 800.297395 73.569866 800.297395 63.36887 C 800.297395 54.554418 798.580722 47.995849 795.136373 43.704168 C 791.725037 39.379474 786.718076 36.914508 780.11549 36.287263 Z M 870.273803 15.048944 C 871.858424 15.048944 872.650734 15.973306 872.650734 17.82203 L 872.650734 109.168809 C 872.650734 110.577361 872.298596 111.578753 871.594321 112.161982 C 870.87904 112.723201 869.789614 112.998309 868.304032 112.998309 L 846.251394 112.998309 C 844.919873 112.998309 843.984506 112.74521 843.456299 112.228007 C 842.939097 111.688796 842.674993 110.852469 842.674993 109.70802 L 842.674993 18.075129 C 842.674993 17.10675 842.89508 16.369461 843.324248 15.852259 C 843.775424 15.313047 844.40267 15.048944 845.19498 15.048944 Z M 927.309143 13.596375 C 935.584385 13.596375 943.012294 15.797237 949.61488 20.209965 C 956.206462 24.589681 961.378488 30.642051 965.119953 38.356073 C 968.850414 46.048086 970.721147 54.697474 970.721147 64.293232 C 970.721147 73.877986 968.872423 82.461348 965.185979 90.054322 C 961.488531 97.614283 956.360522 103.512594 949.801953 107.749253 C 943.254389 111.9529 935.749449 114.065727 927.309143 114.065727 C 918.868837 114.065727 911.308876 111.9529 904.651268 107.749253 C 898.015669 103.512594 892.843644 97.614283 889.146195 90.054322 C 885.448747 82.461348 883.600023 73.877986 883.600023 64.293232 C 883.600023 54.697474 885.470756 46.048086 889.212221 38.356073 C 892.953687 30.642051 898.136717 24.589681 904.78332 20.209965 C 911.440928 15.797237 918.945867 13.596375 927.309143 13.596375 Z M 927.177092 93.465659 C 930.423363 93.465659 933.009376 92.519288 934.946135 90.626546 C 936.882893 88.744809 938.269436 85.70762 939.105764 81.536986 C 939.942091 77.355348 940.360255 71.644111 940.360255 64.425284 C 940.360255 53.420974 939.347859 45.596909 937.33407 40.931082 C 935.309277 36.265254 931.930954 33.93234 927.177092 33.93234 C 922.412225 33.93234 919.011893 36.265254 916.998105 40.931082 C 914.973311 45.596909 913.960915 53.420974 913.960915 64.425284 C 913.960915 71.545073 914.401087 77.212292 915.292436 81.448952 C 916.172781 85.674607 917.559324 88.744809 919.441061 90.626546 C 921.333803 92.519288 923.919816 93.465659 927.177092 93.465659 Z M 927.177092 93.465659 " stroke="#ffdf2b" stroke-width="4.9509" stroke-opacity="1" stroke-miterlimit="4"/></g><path stroke-linecap="butt" transform="matrix(0, 0.749153, -0.749153, 0, 114.206008, 159.175646)" fill="none" stroke-linejoin="miter" d="M 0.00018074 3.502589 L 160.295696 3.502589 " stroke="#ffdf2b" stroke-width="7" stroke-opacity="1" stroke-miterlimit="4"/><g fill="#fcfcfc" fill-opacity="1"><g transform="translate(138.109146, 211.320648)"><g><path d="M 49.578125 0 L 4.328125 0 L 4.328125 -38.765625 L 20.59375 -38.765625 L 20.59375 -9.59375 L 49.578125 -9.59375 Z M 49.578125 0 "/></g></g></g><g fill="#fcfcfc" fill-opacity="1"><g transform="translate(189.912858, 211.320648)"><g><path d="M 65.109375 0 L 48.625 0 L 44.984375 -6.34375 L 20.53125 -6.34375 L 16.890625 0 L 0.40625 0 L 25.203125 -38.734375 L 40.3125 -38.734375 Z M 39.5 -15.9375 L 32.765625 -27.6875 L 26.015625 -15.9375 Z M 39.5 -15.9375 "/></g></g></g><g fill="#fcfcfc" fill-opacity="1"><g transform="translate(256.571493, 211.320648)"><g><path d="M 32.125 0 L 4.328125 0 L 4.328125 -38.734375 L 32.71875 -38.734375 C 37.757812 -38.734375 41.910156 -38.503906 45.171875 -38.046875 C 48.429688 -37.585938 50.941406 -36.867188 52.703125 -35.890625 C 54.472656 -34.910156 55.671875 -33.660156 56.296875 -32.140625 C 56.929688 -30.628906 57.25 -28.820312 57.25 -26.71875 C 57.195312 -25.0625 56.738281 -23.6875 55.875 -22.59375 C 55.019531 -21.507812 54.019531 -20.703125 52.875 -20.171875 C 51.738281 -19.640625 50.738281 -19.375 49.875 -19.375 C 50.71875 -19.375 51.707031 -19.207031 52.84375 -18.875 C 53.976562 -18.539062 55.082031 -18.054688 56.15625 -17.421875 C 57.226562 -16.796875 58.117188 -16.03125 58.828125 -15.125 C 59.535156 -14.226562 59.890625 -13.203125 59.890625 -12.046875 C 59.890625 -10.535156 59.710938 -9.148438 59.359375 -7.890625 C 59.015625 -6.628906 58.3125 -5.507812 57.25 -4.53125 C 56.195312 -3.5625 54.644531 -2.738281 52.59375 -2.0625 C 50.539062 -1.382812 47.851562 -0.867188 44.53125 -0.515625 C 41.207031 -0.171875 37.070312 0 32.125 0 Z M 31.203125 -22.6875 C 33.578125 -22.6875 35.414062 -22.800781 36.71875 -23.03125 C 38.03125 -23.269531 38.9375 -23.628906 39.4375 -24.109375 C 39.945312 -24.585938 40.203125 -25.195312 40.203125 -25.9375 C 40.203125 -26.6875 39.945312 -27.300781 39.4375 -27.78125 C 38.9375 -28.257812 38.03125 -28.609375 36.71875 -28.828125 C 35.414062 -29.054688 33.578125 -29.171875 31.203125 -29.171875 L 20.59375 -29.171875 L 20.59375 -22.6875 Z M 31.203125 -9.5625 C 33.628906 -9.5625 35.597656 -9.625 37.109375 -9.75 C 38.628906 -9.875 39.738281 -10.160156 40.4375 -10.609375 C 41.144531 -11.066406 41.5 -11.800781 41.5 -12.8125 C 41.5 -13.8125 41.144531 -14.539062 40.4375 -15 C 39.738281 -15.46875 38.628906 -15.757812 37.109375 -15.875 C 35.597656 -15.988281 33.628906 -16.046875 31.203125 -16.046875 L 20.59375 -16.046875 L 20.59375 -9.5625 Z M 31.203125 -9.5625 "/></g></g></g><path stroke-linecap="round" transform="matrix(-0.749153, 0, 0, -0.749153, 101.150574, 205.07796)" fill="none" stroke-linejoin="miter" d="M 4.497509 4.499651 L 22.757703 4.499651 " stroke="#ffdf2b" stroke-width="9" stroke-opacity="1" stroke-miterlimit="4"/><path stroke-linecap="round" transform="matrix(0.375915, -0.648012, 0.648012, 0.375915, 72.229617, 215.053628)" fill="none" stroke-linejoin="miter" d="M 4.500327 4.497731 L 22.754437 4.499731 " stroke="#ffdf2b" stroke-width="9" stroke-opacity="1" stroke-miterlimit="4"/><path stroke-linecap="round" transform="matrix(-0.121591, -0.73922, 0.73922, -0.121591, 73.819431, 217.257762)" fill="none" stroke-linejoin="miter" d="M 4.501948 4.498827 L 30.954726 4.500973 " stroke="#ffdf2b" stroke-width="9" stroke-opacity="1" stroke-miterlimit="4"/><path stroke-linecap="round" transform="matrix(0.196325, -0.722971, 0.722971, 0.196325, 59.145198, 232.680753)" fill="none" stroke-linejoin="miter" d="M 4.497591 4.499576 L 54.870656 4.501178 " stroke="#ffdf2b" stroke-width="9" stroke-opacity="1" stroke-miterlimit="4"/><path stroke-linecap="round" transform="matrix(-0.0704127, -0.745837, 0.745837, -0.0704127, 60.279836, 233.610127)" fill="none" stroke-linejoin="miter" d="M 4.499206 4.501356 L 85.76804 4.500954 " stroke="#ffdf2b" stroke-width="9" stroke-opacity="1" stroke-miterlimit="4"/><path stroke-linecap="round" transform="matrix(0.12913, -0.737941, 0.737941, 0.12913, 45.54147, 216.090502)" fill="none" stroke-linejoin="miter" d="M 4.498634 4.497691 L 64.458349 4.502446 " stroke="#ffdf2b" stroke-width="9" stroke-opacity="1" stroke-miterlimit="4"/><g clip-path="url(#8cdb4e402e)"><path stroke-linecap="round" transform="matrix(0.749153, 0, 0, 0.749153, 0.0254024, 233.573696)" fill="none" stroke-linejoin="miter" d="M 4.502462 4.500569 L 22.585373 4.500569 " stroke="#fcfcfc" stroke-width="9" stroke-opacity="1" stroke-miterlimit="4"/></g><g clip-path="url(#ce622e1e73)"><path stroke-linecap="round" transform="matrix(-0.375915, 0.648012, -0.648012, -0.375915, 28.782773, 223.692609)" fill="none" stroke-linejoin="miter" d="M 4.500612 4.498601 L 22.586572 4.501698 " stroke="#fcfcfc" stroke-width="9" stroke-opacity="1" stroke-miterlimit="4"/></g><g clip-path="url(#b2e42b4e96)"><path stroke-linecap="round" transform="matrix(0.121591, 0.73922, -0.73922, 0.121591, 27.204598, 221.492425)" fill="none" stroke-linejoin="miter" d="M 4.501573 4.499565 L 30.732334 4.502183 " stroke="#fcfcfc" stroke-width="9" stroke-opacity="1" stroke-miterlimit="4"/></g><g clip-path="url(#a25a6536c6)"><path stroke-linecap="round" transform="matrix(-0.196325, 0.722971, -0.722971, -0.196325, 41.782602, 206.171607)" fill="none" stroke-linejoin="miter" d="M 4.502303 4.501089 L 54.497166 4.502734 " stroke="#fcfcfc" stroke-width="9" stroke-opacity="1" stroke-miterlimit="4"/></g><g clip-path="url(#53e583d0f6)"><path stroke-linecap="round" transform="matrix(0.0704127, 0.745837, -0.745837, 0.0704127, 40.662503, 205.238282)" fill="none" stroke-linejoin="miter" d="M 4.498579 4.49731 L 85.20657 4.501573 " stroke="#fcfcfc" stroke-width="9" stroke-opacity="1" stroke-miterlimit="4"/></g><path stroke-linecap="round" transform="matrix(-0.12913, 0.737941, -0.737941, -0.12913, 55.304853, 222.656919)" fill="none" stroke-linejoin="miter" d="M 4.502618 4.50048 L 64.027685 4.501891 " stroke="#fcfcfc" stroke-width="9" stroke-opacity="1" stroke-miterlimit="4"/></svg>