<svg xmlns="http://www.w3.org/2000/svg" xmlns:xlink="http://www.w3.org/1999/xlink" width="40" zoomAndPan="magnify" viewBox="0 0 30 30.000001" height="40" preserveAspectRatio="xMidYMid meet" version="1.0"><defs><clipPath id="2f105f137e"><path d="M 0.484375 2 L 29.515625 2 L 29.515625 27 L 0.484375 27 Z M 0.484375 2 " clip-rule="nonzero"/></clipPath></defs><g clip-path="url(#2f105f137e)"><path stroke-linecap="round" transform="matrix(0.725806, 0.000601638, -0.000601638, 0.725806, 1.530261, 13.410834)" fill="none" stroke-linejoin="miter" d="M 1.498787 1.499388 L 26.078137 1.500541 " stroke="#ffdf2b" stroke-width="3" stroke-opacity="1" stroke-miterlimit="4"/></g><path stroke-linecap="round" transform="matrix(0.725806, 0, 0, 0.725806, 1.527443, 5.687441)" fill="none" stroke-linejoin="miter" d="M 1.501426 1.501644 L 35.714448 1.501644 " stroke="#ffdf2b" stroke-width="3" stroke-opacity="1" stroke-miterlimit="4"/><path fill="#ffdf2b" d="M 2.582031 21.75 L 13.46875 21.75 C 13.613281 21.75 13.753906 21.777344 13.886719 21.832031 C 14.019531 21.886719 14.136719 21.964844 14.238281 22.066406 C 14.34375 22.167969 14.421875 22.285156 14.476562 22.421875 C 14.53125 22.554688 14.558594 22.691406 14.558594 22.835938 C 14.558594 22.980469 14.53125 23.121094 14.476562 23.253906 C 14.421875 23.386719 14.34375 23.503906 14.238281 23.605469 C 14.136719 23.707031 14.019531 23.789062 13.886719 23.84375 C 13.753906 23.898438 13.613281 23.925781 13.46875 23.925781 L 2.582031 23.925781 C 2.4375 23.925781 2.300781 23.898438 2.167969 23.84375 C 2.03125 23.789062 1.914062 23.707031 1.8125 23.605469 C 1.710938 23.503906 1.632812 23.386719 1.578125 23.253906 C 1.523438 23.121094 1.496094 22.980469 1.496094 22.835938 C 1.496094 22.691406 1.523438 22.554688 1.578125 22.421875 C 1.632812 22.285156 1.710938 22.167969 1.8125 22.066406 C 1.914062 21.964844 2.03125 21.886719 2.167969 21.832031 C 2.300781 21.777344 2.4375 21.75 2.582031 21.75 Z M 17.824219 21.75 L 27.417969 21.75 C 27.5625 21.75 27.699219 21.777344 27.832031 21.832031 C 27.96875 21.886719 28.085938 21.964844 28.1875 22.066406 C 28.289062 22.167969 28.367188 22.285156 28.421875 22.421875 C 28.476562 22.554688 28.503906 22.691406 28.503906 22.835938 C 28.503906 22.980469 28.476562 23.121094 28.421875 23.253906 C 28.367188 23.386719 28.289062 23.503906 28.1875 23.605469 C 28.085938 23.707031 27.96875 23.789062 27.832031 23.84375 C 27.699219 23.898438 27.5625 23.925781 27.417969 23.925781 L 17.824219 23.925781 C 17.679688 23.925781 17.542969 23.898438 17.410156 23.84375 C 17.273438 23.789062 17.15625 23.707031 17.054688 23.605469 C 16.953125 23.503906 16.875 23.386719 16.820312 23.253906 C 16.765625 23.121094 16.734375 22.980469 16.734375 22.835938 C 16.734375 22.691406 16.765625 22.554688 16.820312 22.421875 C 16.875 22.285156 16.953125 22.167969 17.054688 22.066406 C 17.15625 21.964844 17.273438 21.886719 17.410156 21.832031 C 17.542969 21.777344 17.679688 21.75 17.824219 21.75 Z M 17.824219 21.75 " fill-opacity="1" fill-rule="nonzero"/></svg>