<svg xmlns="http://www.w3.org/2000/svg" xmlns:xlink="http://www.w3.org/1999/xlink" width="40" zoomAndPan="magnify" viewBox="0 0 30 30.000001" height="40" preserveAspectRatio="xMidYMid meet" version="1.0"><path fill="#fcfcfc" d="M 5.203125 23.707031 L 12.898438 16.007812 C 13 15.90625 13.121094 15.828125 13.253906 15.773438 C 13.386719 15.71875 13.523438 15.691406 13.667969 15.691406 C 13.8125 15.691406 13.953125 15.71875 14.085938 15.773438 C 14.21875 15.828125 14.335938 15.90625 14.441406 16.007812 C 14.542969 16.109375 14.621094 16.226562 14.675781 16.363281 C 14.730469 16.496094 14.757812 16.632812 14.757812 16.777344 C 14.757812 16.921875 14.730469 17.0625 14.675781 17.195312 C 14.621094 17.328125 14.542969 17.445312 14.441406 17.546875 L 6.742188 25.246094 C 6.640625 25.347656 6.519531 25.425781 6.386719 25.484375 C 6.253906 25.539062 6.117188 25.566406 5.972656 25.566406 C 5.828125 25.566406 5.6875 25.539062 5.554688 25.484375 C 5.421875 25.425781 5.304688 25.347656 5.203125 25.246094 C 5.097656 25.144531 5.019531 25.027344 4.964844 24.894531 C 4.910156 24.761719 4.882812 24.621094 4.882812 24.476562 C 4.882812 24.332031 4.910156 24.195312 4.964844 24.058594 C 5.019531 23.925781 5.097656 23.808594 5.203125 23.707031 Z M 15.980469 12.929688 L 23.675781 5.230469 C 23.78125 5.128906 23.898438 5.050781 24.03125 4.996094 C 24.164062 4.941406 24.304688 4.910156 24.449219 4.910156 C 24.589844 4.910156 24.730469 4.941406 24.863281 4.996094 C 24.996094 5.050781 25.113281 5.128906 25.21875 5.230469 C 25.320312 5.332031 25.398438 5.449219 25.453125 5.582031 C 25.507812 5.71875 25.535156 5.855469 25.535156 6 C 25.535156 6.144531 25.507812 6.285156 25.453125 6.417969 C 25.398438 6.550781 25.320312 6.667969 25.21875 6.769531 L 17.519531 14.46875 C 17.417969 14.570312 17.300781 14.648438 17.164062 14.703125 C 17.03125 14.761719 16.894531 14.789062 16.75 14.789062 C 16.605469 14.789062 16.464844 14.761719 16.332031 14.703125 C 16.199219 14.648438 16.082031 14.570312 15.980469 14.46875 C 15.878906 14.367188 15.796875 14.25 15.742188 14.117188 C 15.6875 13.980469 15.660156 13.84375 15.660156 13.699219 C 15.660156 13.554688 15.6875 13.414062 15.742188 13.28125 C 15.796875 13.148438 15.878906 13.03125 15.980469 12.929688 Z M 15.980469 12.929688 " fill-opacity="1" fill-rule="nonzero"/><path fill="#fcfcfc" d="M 6.742188 5.261719 L 14.441406 12.960938 C 14.542969 13.0625 14.621094 13.179688 14.675781 13.3125 C 14.730469 13.445312 14.757812 13.585938 14.757812 13.730469 C 14.757812 13.875 14.730469 14.011719 14.675781 14.144531 C 14.621094 14.277344 14.542969 14.398438 14.441406 14.5 C 14.335938 14.601562 14.21875 14.679688 14.085938 14.734375 C 13.953125 14.789062 13.8125 14.816406 13.667969 14.816406 C 13.523438 14.816406 13.386719 14.789062 13.253906 14.734375 C 13.121094 14.679688 13 14.601562 12.898438 14.5 L 5.203125 6.800781 C 5.097656 6.699219 5.019531 6.582031 4.964844 6.445312 C 4.910156 6.3125 4.882812 6.175781 4.882812 6.03125 C 4.882812 5.886719 4.910156 5.746094 4.964844 5.613281 C 5.019531 5.480469 5.097656 5.363281 5.203125 5.261719 C 5.304688 5.160156 5.421875 5.078125 5.554688 5.023438 C 5.6875 4.96875 5.828125 4.941406 5.972656 4.941406 C 6.117188 4.941406 6.253906 4.96875 6.386719 5.023438 C 6.519531 5.078125 6.640625 5.160156 6.742188 5.261719 Z M 17.519531 16.039062 L 25.21875 23.738281 C 25.320312 23.839844 25.398438 23.957031 25.453125 24.089844 C 25.507812 24.222656 25.535156 24.363281 25.535156 24.507812 C 25.535156 24.652344 25.507812 24.789062 25.453125 24.921875 C 25.398438 25.054688 25.320312 25.175781 25.21875 25.277344 C 25.113281 25.378906 24.996094 25.457031 24.863281 25.511719 C 24.730469 25.566406 24.589844 25.59375 24.449219 25.59375 C 24.304688 25.59375 24.164062 25.566406 24.03125 25.511719 C 23.898438 25.457031 23.78125 25.378906 23.675781 25.277344 L 15.980469 17.578125 C 15.878906 17.476562 15.796875 17.359375 15.742188 17.226562 C 15.6875 17.089844 15.660156 16.953125 15.660156 16.808594 C 15.660156 16.664062 15.6875 16.523438 15.742188 16.390625 C 15.796875 16.257812 15.878906 16.140625 15.980469 16.039062 C 16.082031 15.9375 16.199219 15.859375 16.332031 15.800781 C 16.464844 15.746094 16.605469 15.71875 16.75 15.71875 C 16.894531 15.71875 17.03125 15.746094 17.164062 15.800781 C 17.300781 15.859375 17.417969 15.9375 17.519531 16.039062 Z M 17.519531 16.039062 " fill-opacity="1" fill-rule="nonzero"/></svg>